# MagicaVoxel @ Ephtracy

# group
o 

# material
mtllib 4er-tisch-verl-32.mtl
usemtl palette

# normals
vn -1 0 0
vn 1 0 0
vn 0 0 1
vn 0 0 -1
vn 0 -1 0
vn 0 1 0

# texcoords
vt 0.0332031 0.5
vt 0.958984 0.5

# verts
v 28.6 0.4 -4.9
v 28.6 0.4 -5.5
v 28.6 1.6 -4.9
v 28.6 1.6 -5.5
v 28.8 0.1 -4.9
v 28.8 0.1 -5
v 28.8 0.1 -5.4
v 28.8 0.1 -5.5
v 28.8 0.4 -4.9
v 28.8 0.4 -5
v 28.8 0.4 -5.4
v 28.8 0.4 -5.5
v 30.6 0.1 -4.9
v 30.6 0.1 -5
v 30.6 0.1 -5.4
v 30.6 0.1 -5.5
v 30.6 0.4 -4.9
v 30.6 0.4 -5
v 30.6 0.4 -5.4
v 30.6 0.4 -5.5
v 30.8 0.5 -5
v 30.8 0.5 -5.4
v 30.8 1.5 -5
v 30.8 1.5 -5.4
v 28.7 0.5 -5
v 28.7 0.5 -5.4
v 28.7 1.5 -5
v 28.7 1.5 -5.4
v 28.9 0.1 -4.9
v 28.9 0.1 -5
v 28.9 0.1 -5.4
v 28.9 0.1 -5.5
v 28.9 0.4 -4.9
v 28.9 0.4 -5
v 28.9 0.4 -5.4
v 28.9 0.4 -5.5
v 30.7 0.1 -4.9
v 30.7 0.1 -5
v 30.7 0.1 -5.4
v 30.7 0.1 -5.5
v 30.7 0.4 -4.9
v 30.7 0.4 -5
v 30.7 0.4 -5.4
v 30.7 0.4 -5.5
v 30.9 0.4 -4.9
v 30.9 0.4 -5.5
v 30.9 1.6 -4.9
v 30.9 1.6 -5.5
v 28.6 0.4 -4.9
v 28.6 1.6 -4.9
v 28.7 0.5 -4.9
v 28.7 1.5 -4.9
v 28.8 0.1 -4.9
v 28.8 0.4 -4.9
v 28.9 0.1 -4.9
v 28.9 0.4 -4.9
v 30.6 0.1 -4.9
v 30.6 0.4 -4.9
v 30.7 0.1 -4.9
v 30.7 0.4 -4.9
v 30.8 0.5 -4.9
v 30.8 1.5 -4.9
v 30.9 0.4 -4.9
v 30.9 1.6 -4.9
v 28.7 0.5 -5.4
v 28.7 1.5 -5.4
v 28.8 0.1 -5.4
v 28.8 0.4 -5.4
v 28.9 0.1 -5.4
v 28.9 0.4 -5.4
v 30.6 0.1 -5.4
v 30.6 0.4 -5.4
v 30.7 0.1 -5.4
v 30.7 0.4 -5.4
v 30.8 0.5 -5.4
v 30.8 1.5 -5.4
v 28.7 0.5 -5
v 28.7 1.5 -5
v 28.8 0.1 -5
v 28.8 0.4 -5
v 28.9 0.1 -5
v 28.9 0.4 -5
v 30.6 0.1 -5
v 30.6 0.4 -5
v 30.7 0.1 -5
v 30.7 0.4 -5
v 30.8 0.5 -5
v 30.8 1.5 -5
v 28.6 0.4 -5.5
v 28.6 1.6 -5.5
v 28.8 0.1 -5.5
v 28.8 0.4 -5.5
v 28.9 0.1 -5.5
v 28.9 0.4 -5.5
v 30.6 0.1 -5.5
v 30.6 0.4 -5.5
v 30.7 0.1 -5.5
v 30.7 0.4 -5.5
v 30.9 0.4 -5.5
v 30.9 1.6 -5.5
v 28.8 0.1 -4.9
v 28.9 0.1 -4.9
v 30.6 0.1 -4.9
v 30.7 0.1 -4.9
v 28.8 0.1 -5
v 28.9 0.1 -5
v 30.6 0.1 -5
v 30.7 0.1 -5
v 28.8 0.1 -5.4
v 28.9 0.1 -5.4
v 30.6 0.1 -5.4
v 30.7 0.1 -5.4
v 28.8 0.1 -5.5
v 28.9 0.1 -5.5
v 30.6 0.1 -5.5
v 30.7 0.1 -5.5
v 28.6 0.4 -4.9
v 28.8 0.4 -4.9
v 28.9 0.4 -4.9
v 30.6 0.4 -4.9
v 30.7 0.4 -4.9
v 30.9 0.4 -4.9
v 28.8 0.4 -5
v 28.9 0.4 -5
v 30.6 0.4 -5
v 30.7 0.4 -5
v 28.8 0.4 -5.4
v 28.9 0.4 -5.4
v 30.6 0.4 -5.4
v 30.7 0.4 -5.4
v 28.6 0.4 -5.5
v 28.8 0.4 -5.5
v 28.9 0.4 -5.5
v 30.6 0.4 -5.5
v 30.7 0.4 -5.5
v 30.9 0.4 -5.5
v 28.7 1.5 -5
v 30.8 1.5 -5
v 28.7 1.5 -5.4
v 30.8 1.5 -5.4
v 28.7 0.5 -5
v 30.8 0.5 -5
v 28.7 0.5 -5.4
v 30.8 0.5 -5.4
v 28.6 1.6 -4.9
v 30.9 1.6 -4.9
v 28.6 1.6 -5.5
v 30.9 1.6 -5.5

# faces
f 3/2/1 2/2/1 1/2/1
f 4/2/1 2/2/1 3/2/1
f 9/2/1 6/2/1 5/2/1
f 10/2/1 6/2/1 9/2/1
f 11/2/1 8/2/1 7/2/1
f 12/2/1 8/2/1 11/2/1
f 17/2/1 14/2/1 13/2/1
f 18/2/1 14/2/1 17/2/1
f 19/2/1 16/2/1 15/2/1
f 20/2/1 16/2/1 19/2/1
f 23/2/1 22/2/1 21/2/1
f 24/2/1 22/2/1 23/2/1
f 25/2/2 26/2/2 27/2/2
f 27/2/2 26/2/2 28/2/2
f 29/2/2 30/2/2 33/2/2
f 33/2/2 30/2/2 34/2/2
f 31/2/2 32/2/2 35/2/2
f 35/2/2 32/2/2 36/2/2
f 37/2/2 38/2/2 41/2/2
f 41/2/2 38/2/2 42/2/2
f 39/2/2 40/2/2 43/2/2
f 43/2/2 40/2/2 44/2/2
f 45/2/2 46/2/2 47/2/2
f 47/2/2 46/2/2 48/2/2
f 51/2/3 50/2/3 49/2/3
f 52/2/3 50/2/3 51/2/3
f 54/2/3 51/2/3 49/2/3
f 55/2/3 54/2/3 53/2/3
f 56/2/3 51/2/3 54/2/3
f 56/2/3 54/2/3 55/2/3
f 58/2/3 51/2/3 56/2/3
f 59/2/3 58/2/3 57/2/3
f 60/2/3 51/2/3 58/2/3
f 60/2/3 58/2/3 59/2/3
f 61/1/3 52/1/3 51/1/3
f 61/2/3 51/2/3 60/2/3
f 62/2/3 50/2/3 52/2/3
f 62/1/3 52/1/3 61/1/3
f 63/2/3 61/2/3 60/2/3
f 63/2/3 62/2/3 61/2/3
f 64/2/3 50/2/3 62/2/3
f 64/2/3 62/2/3 63/2/3
f 69/2/3 68/2/3 67/2/3
f 70/2/3 68/2/3 69/2/3
f 73/2/3 72/2/3 71/2/3
f 74/2/3 72/2/3 73/2/3
f 75/2/3 66/2/3 65/2/3
f 76/2/3 66/2/3 75/2/3
f 79/2/4 80/2/4 81/2/4
f 81/2/4 80/2/4 82/2/4
f 83/2/4 84/2/4 85/2/4
f 85/2/4 84/2/4 86/2/4
f 77/1/4 78/1/4 87/1/4
f 87/1/4 78/1/4 88/1/4
f 89/2/4 90/2/4 92/2/4
f 91/2/4 92/2/4 93/2/4
f 92/2/4 90/2/4 94/2/4
f 93/2/4 92/2/4 94/2/4
f 94/2/4 90/2/4 96/2/4
f 95/2/4 96/2/4 97/2/4
f 96/2/4 90/2/4 98/2/4
f 97/2/4 96/2/4 98/2/4
f 98/2/4 90/2/4 99/2/4
f 99/2/4 90/2/4 100/2/4
f 105/2/5 102/2/5 101/2/5
f 106/2/5 102/2/5 105/2/5
f 107/2/5 104/2/5 103/2/5
f 108/2/5 104/2/5 107/2/5
f 113/2/5 110/2/5 109/2/5
f 114/2/5 110/2/5 113/2/5
f 115/2/5 112/2/5 111/2/5
f 116/2/5 112/2/5 115/2/5
f 123/2/5 118/2/5 117/2/5
f 124/2/5 120/2/5 119/2/5
f 125/2/5 120/2/5 124/2/5
f 126/2/5 122/2/5 121/2/5
f 127/2/5 125/2/5 124/2/5
f 127/2/5 126/2/5 125/2/5
f 127/2/5 123/2/5 117/2/5
f 127/2/5 124/2/5 123/2/5
f 128/2/5 126/2/5 127/2/5
f 129/2/5 126/2/5 128/2/5
f 130/2/5 122/2/5 126/2/5
f 130/2/5 126/2/5 129/2/5
f 131/2/5 127/2/5 117/2/5
f 132/2/5 127/2/5 131/2/5
f 133/2/5 129/2/5 128/2/5
f 134/2/5 129/2/5 133/2/5
f 135/2/5 122/2/5 130/2/5
f 136/2/5 122/2/5 135/2/5
f 139/2/5 138/2/5 137/2/5
f 140/2/5 138/2/5 139/2/5
f 141/2/6 142/2/6 143/2/6
f 143/2/6 142/2/6 144/2/6
f 145/2/6 146/2/6 147/2/6
f 147/2/6 146/2/6 148/2/6
