# MagicaVoxel @ Ephtracy

# group
o green lounge

# material
mtllib 4er-tisch-verl-35-green lounge.mtl
usemtl palette

# normals
vn -1 0 0
vn 1 0 0
vn 0 0 1
vn 0 0 -1
vn 0 -1 0
vn 0 1 0

# texcoords
vt 0.814453 0.5

# verts
v 34.7 0.2 -1.5
v 34.7 0.2 -4.5
v 34.7 1.1 -1.5
v 34.7 1.1 -4.5
v 34.8 1.1 -1.6
v 34.8 1.1 -4.2
v 34.8 1.3 -1.6
v 34.8 1.3 -4.2
v 37.6 0.7 -1.9
v 37.6 0.7 -2.7
v 37.6 1.1 -1.9
v 37.6 1.1 -2.7
v 35.1 0.7 -1.9
v 35.1 0.7 -4.2
v 35.1 1.1 -4.2
v 35.1 1.3 -1.9
v 35.1 1.3 -4.2
v 35.9 0.2 -2.7
v 35.9 0.2 -4.5
v 35.9 0.7 -2.7
v 35.9 0.7 -4.2
v 35.9 1.1 -4.2
v 35.9 1.1 -4.5
v 37.6 1.1 -1.6
v 37.6 1.1 -1.9
v 37.6 1.3 -1.6
v 37.6 1.3 -1.9
v 37.9 0.2 -1.5
v 37.9 0.2 -2.7
v 37.9 1.1 -1.5
v 37.9 1.1 -2.7
v 34.7 0.2 -1.5
v 34.7 1.1 -1.5
v 37.9 0.2 -1.5
v 37.9 1.1 -1.5
v 34.8 1.1 -1.6
v 34.8 1.3 -1.6
v 37.6 1.1 -1.6
v 37.6 1.3 -1.6
v 35.1 0.7 -4.2
v 35.1 1.1 -4.2
v 35.9 0.7 -4.2
v 35.9 1.1 -4.2
v 35.1 0.7 -1.9
v 35.1 1.3 -1.9
v 37.6 0.7 -1.9
v 37.6 1.1 -1.9
v 37.6 1.3 -1.9
v 35.9 0.2 -2.7
v 35.9 0.7 -2.7
v 37.6 0.7 -2.7
v 37.6 1.1 -2.7
v 37.9 0.2 -2.7
v 37.9 1.1 -2.7
v 34.8 1.1 -4.2
v 34.8 1.3 -4.2
v 35.1 1.1 -4.2
v 35.1 1.3 -4.2
v 34.7 0.2 -4.5
v 34.7 1.1 -4.5
v 35.9 0.2 -4.5
v 35.9 1.1 -4.5
v 34.7 0.2 -1.5
v 37.9 0.2 -1.5
v 35.9 0.2 -2.7
v 37.9 0.2 -2.7
v 34.7 0.2 -4.5
v 35.9 0.2 -4.5
v 35.1 0.7 -1.9
v 37.6 0.7 -1.9
v 35.9 0.7 -2.7
v 37.6 0.7 -2.7
v 35.1 0.7 -4.2
v 35.9 0.7 -4.2
v 34.7 1.1 -1.5
v 37.9 1.1 -1.5
v 34.8 1.1 -1.6
v 37.6 1.1 -1.6
v 37.6 1.1 -1.9
v 37.6 1.1 -2.7
v 37.9 1.1 -2.7
v 34.8 1.1 -4.2
v 35.1 1.1 -4.2
v 35.9 1.1 -4.2
v 34.7 1.1 -4.5
v 35.9 1.1 -4.5
v 34.8 1.3 -1.6
v 37.6 1.3 -1.6
v 35.1 1.3 -1.9
v 37.6 1.3 -1.9
v 34.8 1.3 -4.2
v 35.1 1.3 -4.2

# faces
f 3/1/1 2/1/1 1/1/1
f 4/1/1 2/1/1 3/1/1
f 7/1/1 6/1/1 5/1/1
f 8/1/1 6/1/1 7/1/1
f 11/1/1 10/1/1 9/1/1
f 12/1/1 10/1/1 11/1/1
f 13/1/2 14/1/2 15/1/2
f 13/1/2 15/1/2 16/1/2
f 16/1/2 15/1/2 17/1/2
f 18/1/2 19/1/2 20/1/2
f 20/1/2 19/1/2 21/1/2
f 21/1/2 19/1/2 22/1/2
f 22/1/2 19/1/2 23/1/2
f 24/1/2 25/1/2 26/1/2
f 26/1/2 25/1/2 27/1/2
f 28/1/2 29/1/2 30/1/2
f 30/1/2 29/1/2 31/1/2
f 34/1/3 33/1/3 32/1/3
f 35/1/3 33/1/3 34/1/3
f 38/1/3 37/1/3 36/1/3
f 39/1/3 37/1/3 38/1/3
f 42/1/3 41/1/3 40/1/3
f 43/1/3 41/1/3 42/1/3
f 44/1/4 45/1/4 46/1/4
f 46/1/4 45/1/4 47/1/4
f 47/1/4 45/1/4 48/1/4
f 49/1/4 50/1/4 51/1/4
f 49/1/4 51/1/4 53/1/4
f 51/1/4 52/1/4 53/1/4
f 53/1/4 52/1/4 54/1/4
f 55/1/4 56/1/4 57/1/4
f 57/1/4 56/1/4 58/1/4
f 59/1/4 60/1/4 61/1/4
f 61/1/4 60/1/4 62/1/4
f 65/1/5 64/1/5 63/1/5
f 66/1/5 64/1/5 65/1/5
f 67/1/5 65/1/5 63/1/5
f 68/1/5 65/1/5 67/1/5
f 69/1/6 70/1/6 71/1/6
f 71/1/6 70/1/6 72/1/6
f 69/1/6 71/1/6 73/1/6
f 73/1/6 71/1/6 74/1/6
f 75/1/6 76/1/6 77/1/6
f 77/1/6 76/1/6 78/1/6
f 78/1/6 76/1/6 79/1/6
f 79/1/6 76/1/6 80/1/6
f 80/1/6 76/1/6 81/1/6
f 75/1/6 77/1/6 82/1/6
f 75/1/6 82/1/6 85/1/6
f 83/1/6 84/1/6 85/1/6
f 82/1/6 83/1/6 85/1/6
f 85/1/6 84/1/6 86/1/6
f 87/1/6 88/1/6 89/1/6
f 89/1/6 88/1/6 90/1/6
f 87/1/6 89/1/6 91/1/6
f 91/1/6 89/1/6 92/1/6
