# MagicaVoxel @ Ephtracy

# group
o 

# material
mtllib 4er-tisch-verl-33.mtl
usemtl palette

# normals
vn -1 0 0
vn 1 0 0
vn 0 0 1
vn 0 0 -1
vn 0 -1 0
vn 0 1 0

# texcoords
vt 0.0957031 0.5
vt 0.958984 0.5

# verts
v 33.1 0.4 -7.7
v 33.1 0.4 -11
v 33.1 0.5 -7.7
v 33.1 0.5 -11
v 33.1 1.6 -7.7
v 33.1 1.6 -11
v 33.2 0.1 -7.9
v 33.2 0.1 -8
v 33.2 0.1 -10.7
v 33.2 0.1 -10.8
v 33.2 0.4 -7.9
v 33.2 0.4 -8
v 33.2 0.4 -10.7
v 33.2 0.4 -10.8
v 34 0.1 -7.9
v 34 0.1 -8
v 34 0.1 -10.7
v 34 0.1 -10.8
v 34 0.4 -7.9
v 34 0.4 -8
v 34 0.4 -10.7
v 34 0.4 -10.8
v 34.1 0.5 -7.8
v 34.1 0.5 -10.9
v 34.1 1.5 -7.8
v 34.1 1.5 -10.9
v 33.2 0.5 -7.8
v 33.2 0.5 -10.9
v 33.2 1.5 -7.8
v 33.2 1.5 -10.9
v 33.3 0.1 -7.9
v 33.3 0.1 -8
v 33.3 0.1 -10.7
v 33.3 0.1 -10.8
v 33.3 0.4 -7.9
v 33.3 0.4 -8
v 33.3 0.4 -10.7
v 33.3 0.4 -10.8
v 34.1 0.1 -7.9
v 34.1 0.1 -8
v 34.1 0.1 -10.7
v 34.1 0.1 -10.8
v 34.1 0.4 -7.9
v 34.1 0.4 -8
v 34.1 0.4 -10.7
v 34.1 0.4 -10.8
v 34.2 0.4 -7.7
v 34.2 0.4 -11
v 34.2 0.5 -7.7
v 34.2 0.5 -11
v 34.2 1.6 -7.7
v 34.2 1.6 -11
v 33.1 0.4 -7.7
v 33.1 0.5 -7.7
v 33.1 1.6 -7.7
v 34.2 0.4 -7.7
v 34.2 0.5 -7.7
v 34.2 1.6 -7.7
v 33.2 0.1 -7.9
v 33.2 0.4 -7.9
v 33.3 0.1 -7.9
v 33.3 0.4 -7.9
v 34 0.1 -7.9
v 34 0.4 -7.9
v 34.1 0.1 -7.9
v 34.1 0.4 -7.9
v 33.2 0.1 -10.7
v 33.2 0.4 -10.7
v 33.3 0.1 -10.7
v 33.3 0.4 -10.7
v 34 0.1 -10.7
v 34 0.4 -10.7
v 34.1 0.1 -10.7
v 34.1 0.4 -10.7
v 33.2 0.5 -10.9
v 33.2 1.5 -10.9
v 34.1 0.5 -10.9
v 34.1 1.5 -10.9
v 33.2 0.5 -7.8
v 33.2 1.5 -7.8
v 34.1 0.5 -7.8
v 34.1 1.5 -7.8
v 33.2 0.1 -8
v 33.2 0.4 -8
v 33.3 0.1 -8
v 33.3 0.4 -8
v 34 0.1 -8
v 34 0.4 -8
v 34.1 0.1 -8
v 34.1 0.4 -8
v 33.2 0.1 -10.8
v 33.2 0.4 -10.8
v 33.3 0.1 -10.8
v 33.3 0.4 -10.8
v 34 0.1 -10.8
v 34 0.4 -10.8
v 34.1 0.1 -10.8
v 34.1 0.4 -10.8
v 33.1 0.4 -11
v 33.1 0.5 -11
v 33.1 1.6 -11
v 34.2 0.4 -11
v 34.2 0.5 -11
v 34.2 1.6 -11
v 33.2 0.1 -7.9
v 33.3 0.1 -7.9
v 34 0.1 -7.9
v 34.1 0.1 -7.9
v 33.2 0.1 -8
v 33.3 0.1 -8
v 34 0.1 -8
v 34.1 0.1 -8
v 33.2 0.1 -10.7
v 33.3 0.1 -10.7
v 34 0.1 -10.7
v 34.1 0.1 -10.7
v 33.2 0.1 -10.8
v 33.3 0.1 -10.8
v 34 0.1 -10.8
v 34.1 0.1 -10.8
v 33.1 0.4 -7.7
v 34.2 0.4 -7.7
v 33.2 0.4 -7.9
v 33.3 0.4 -7.9
v 34 0.4 -7.9
v 34.1 0.4 -7.9
v 33.2 0.4 -8
v 33.3 0.4 -8
v 34 0.4 -8
v 34.1 0.4 -8
v 33.2 0.4 -10.7
v 33.3 0.4 -10.7
v 34 0.4 -10.7
v 34.1 0.4 -10.7
v 33.2 0.4 -10.8
v 33.3 0.4 -10.8
v 34 0.4 -10.8
v 34.1 0.4 -10.8
v 33.1 0.4 -11
v 34.2 0.4 -11
v 33.2 1.5 -7.8
v 34.1 1.5 -7.8
v 33.2 1.5 -10.9
v 34.1 1.5 -10.9
v 33.2 0.5 -7.8
v 34.1 0.5 -7.8
v 33.2 0.5 -10.9
v 34.1 0.5 -10.9
v 33.1 1.6 -7.7
v 34.2 1.6 -7.7
v 33.2 1.6 -7.8
v 34.1 1.6 -7.8
v 33.2 1.6 -10.9
v 34.1 1.6 -10.9
v 33.1 1.6 -11
v 34.2 1.6 -11

# faces
f 3/2/1 2/2/1 1/2/1
f 4/2/1 2/2/1 3/2/1
f 5/1/1 4/1/1 3/1/1
f 6/1/1 4/1/1 5/1/1
f 11/2/1 8/2/1 7/2/1
f 12/2/1 8/2/1 11/2/1
f 13/2/1 10/2/1 9/2/1
f 14/2/1 10/2/1 13/2/1
f 19/2/1 16/2/1 15/2/1
f 20/2/1 16/2/1 19/2/1
f 21/2/1 18/2/1 17/2/1
f 22/2/1 18/2/1 21/2/1
f 25/1/1 24/1/1 23/1/1
f 26/1/1 24/1/1 25/1/1
f 27/1/2 28/1/2 29/1/2
f 29/1/2 28/1/2 30/1/2
f 31/2/2 32/2/2 35/2/2
f 35/2/2 32/2/2 36/2/2
f 33/2/2 34/2/2 37/2/2
f 37/2/2 34/2/2 38/2/2
f 39/2/2 40/2/2 43/2/2
f 43/2/2 40/2/2 44/2/2
f 41/2/2 42/2/2 45/2/2
f 45/2/2 42/2/2 46/2/2
f 47/2/2 48/2/2 49/2/2
f 49/2/2 48/2/2 50/2/2
f 49/1/2 50/1/2 51/1/2
f 51/1/2 50/1/2 52/1/2
f 56/2/3 54/2/3 53/2/3
f 57/1/3 55/1/3 54/1/3
f 57/2/3 54/2/3 56/2/3
f 58/1/3 55/1/3 57/1/3
f 61/2/3 60/2/3 59/2/3
f 62/2/3 60/2/3 61/2/3
f 65/2/3 64/2/3 63/2/3
f 66/2/3 64/2/3 65/2/3
f 69/2/3 68/2/3 67/2/3
f 70/2/3 68/2/3 69/2/3
f 73/2/3 72/2/3 71/2/3
f 74/2/3 72/2/3 73/2/3
f 77/1/3 76/1/3 75/1/3
f 78/1/3 76/1/3 77/1/3
f 79/1/4 80/1/4 81/1/4
f 81/1/4 80/1/4 82/1/4
f 83/2/4 84/2/4 85/2/4
f 85/2/4 84/2/4 86/2/4
f 87/2/4 88/2/4 89/2/4
f 89/2/4 88/2/4 90/2/4
f 91/2/4 92/2/4 93/2/4
f 93/2/4 92/2/4 94/2/4
f 95/2/4 96/2/4 97/2/4
f 97/2/4 96/2/4 98/2/4
f 99/2/4 100/2/4 102/2/4
f 100/1/4 101/1/4 103/1/4
f 102/2/4 100/2/4 103/2/4
f 103/1/4 101/1/4 104/1/4
f 109/2/5 106/2/5 105/2/5
f 110/2/5 106/2/5 109/2/5
f 111/2/5 108/2/5 107/2/5
f 112/2/5 108/2/5 111/2/5
f 117/2/5 114/2/5 113/2/5
f 118/2/5 114/2/5 117/2/5
f 119/2/5 116/2/5 115/2/5
f 120/2/5 116/2/5 119/2/5
f 123/2/5 122/2/5 121/2/5
f 124/2/5 122/2/5 123/2/5
f 125/2/5 122/2/5 124/2/5
f 126/2/5 122/2/5 125/2/5
f 127/2/5 123/2/5 121/2/5
f 128/2/5 125/2/5 124/2/5
f 129/2/5 125/2/5 128/2/5
f 130/2/5 122/2/5 126/2/5
f 131/2/5 129/2/5 128/2/5
f 131/2/5 130/2/5 129/2/5
f 131/2/5 127/2/5 121/2/5
f 131/2/5 128/2/5 127/2/5
f 132/2/5 130/2/5 131/2/5
f 133/2/5 130/2/5 132/2/5
f 134/2/5 122/2/5 130/2/5
f 134/2/5 130/2/5 133/2/5
f 135/2/5 131/2/5 121/2/5
f 136/2/5 133/2/5 132/2/5
f 137/2/5 133/2/5 136/2/5
f 138/2/5 122/2/5 134/2/5
f 139/2/5 135/2/5 121/2/5
f 139/2/5 138/2/5 137/2/5
f 139/2/5 137/2/5 136/2/5
f 139/2/5 136/2/5 135/2/5
f 140/2/5 122/2/5 138/2/5
f 140/2/5 138/2/5 139/2/5
f 143/2/5 142/2/5 141/2/5
f 144/2/5 142/2/5 143/2/5
f 145/2/6 146/2/6 147/2/6
f 147/2/6 146/2/6 148/2/6
f 149/1/6 150/1/6 151/1/6
f 151/1/6 150/1/6 152/1/6
f 149/1/6 151/1/6 153/1/6
f 151/2/6 152/2/6 153/2/6
f 152/1/6 150/1/6 154/1/6
f 153/2/6 152/2/6 154/2/6
f 149/1/6 153/1/6 155/1/6
f 153/1/6 154/1/6 155/1/6
f 154/1/6 150/1/6 156/1/6
f 155/1/6 154/1/6 156/1/6
