# MagicaVoxel @ Ephtracy

# group
o 

# material
mtllib dice_2og-38.mtl
usemtl palette

# normals
vn 0 0 1
vn 0 0 -1
vn 1 0 0
vn -1 0 0
vn 0 -1 0
vn 0 1 0

# texcoords
vt 0.0332031 0.5
vt 0.0957031 0.5
vt 0.958984 0.5
vt 0.994141 0.5

# verts
v 8.9 0.1 1.6
v 8.8 0.1 1.6
v 8.4 0.1 1.6
v 8.3 0.1 1.6
v 8.9 0.2 1.6
v 8.8 0.2 1.6
v 8.4 0.2 1.6
v 8.3 0.2 1.6
v 8.8 0.4 1.6
v 8.4 0.4 1.6
v 8.8 0.8 1.6
v 8.4 0.8 1.6
v 8.8 0.9 1.6
v 8.4 0.9 1.6
v 8.8 1.3 1.6
v 8.4 1.3 1.6
v 8.8 1.4 1.6
v 8.4 1.4 1.6
v 8.8 2.3 1.6
v 8.4 2.3 1.6
v 8.8 2.4 1.6
v 8.4 2.4 1.6
v 8.8 2.8 1.6
v 8.4 2.8 1.6
v 8.9 2.9 1.6
v 8.3 2.9 1.6
v 8.8 1.8 0.2
v 8.4 1.8 0.2
v 8.8 1.9 0.2
v 8.4 1.9 0.2
v 8.9 0.4 0
v 8.8 0.4 0
v 8.4 0.4 0
v 8.3 0.4 0
v 8.9 0.8 0
v 8.8 0.8 0
v 8.4 0.8 0
v 8.3 0.8 0
v 8.9 0.9 0
v 8.8 0.9 0
v 8.4 0.9 0
v 8.3 0.9 0
v 8.9 1.3 0
v 8.8 1.3 0
v 8.4 1.3 0
v 8.3 1.3 0
v 8.8 1.4 0
v 8.4 1.4 0
v 8.8 1.8 0
v 8.4 1.8 0
v 8.8 1.9 0
v 8.4 1.9 0
v 8.8 2.3 0
v 8.4 2.3 0
v 8.9 2.4 0
v 8.8 2.4 0
v 8.4 2.4 0
v 8.3 2.4 0
v 8.9 2.8 0
v 8.8 2.8 0
v 8.4 2.8 0
v 8.3 2.8 0
v 8.8 2.9 0
v 8.4 2.9 0
v 8.9 0.1 -1.6
v 8.8 0.1 -1.6
v 8.4 0.1 -1.6
v 8.3 0.1 -1.6
v 8.9 0.2 -1.6
v 8.8 0.2 -1.6
v 8.4 0.2 -1.6
v 8.3 0.2 -1.6
v 8.9 0.3 -1.6
v 8.8 0.3 -1.6
v 8.4 0.3 -1.6
v 8.3 0.3 -1.6
v 8.9 0.4 -1.6
v 8.8 0.4 -1.6
v 8.4 0.4 -1.6
v 8.3 0.4 -1.6
v 8.9 0.8 -1.6
v 8.8 0.8 -1.6
v 8.4 0.8 -1.6
v 8.3 0.8 -1.6
v 8.9 0.9 -1.6
v 8.8 0.9 -1.6
v 8.4 0.9 -1.6
v 8.3 0.9 -1.6
v 8.9 1.3 -1.6
v 8.8 1.3 -1.6
v 8.4 1.3 -1.6
v 8.3 1.3 -1.6
v 8.8 1.4 -1.6
v 8.4 1.4 -1.6
v 8.8 2.3 -1.6
v 8.4 2.3 -1.6
v 8.9 2.4 -1.6
v 8.8 2.4 -1.6
v 8.4 2.4 -1.6
v 8.3 2.4 -1.6
v 8.9 2.8 -1.6
v 8.8 2.8 -1.6
v 8.4 2.8 -1.6
v 8.3 2.8 -1.6
v 8.8 2.9 -1.6
v 8.4 2.9 -1.6
v 8.9 0.1 1.5
v 8.8 0.1 1.5
v 8.4 0.1 1.5
v 8.3 0.1 1.5
v 8.9 0.2 1.5
v 8.8 0.2 1.5
v 8.4 0.2 1.5
v 8.3 0.2 1.5
v 8.9 0.3 1.5
v 8.8 0.3 1.5
v 8.4 0.3 1.5
v 8.3 0.3 1.5
v 8.9 0.4 1.5
v 8.8 0.4 1.5
v 8.4 0.4 1.5
v 8.3 0.4 1.5
v 8.9 0.8 1.5
v 8.8 0.8 1.5
v 8.4 0.8 1.5
v 8.3 0.8 1.5
v 8.9 0.9 1.5
v 8.8 0.9 1.5
v 8.4 0.9 1.5
v 8.3 0.9 1.5
v 8.9 1.3 1.5
v 8.8 1.3 1.5
v 8.4 1.3 1.5
v 8.3 1.3 1.5
v 8.8 1.4 1.5
v 8.4 1.4 1.5
v 8.8 2.3 1.5
v 8.4 2.3 1.5
v 8.9 2.4 1.5
v 8.8 2.4 1.5
v 8.4 2.4 1.5
v 8.3 2.4 1.5
v 8.9 2.8 1.5
v 8.8 2.8 1.5
v 8.4 2.8 1.5
v 8.3 2.8 1.5
v 8.8 2.9 1.5
v 8.4 2.9 1.5
v 8.9 0.4 -0.1
v 8.8 0.4 -0.1
v 8.4 0.4 -0.1
v 8.3 0.4 -0.1
v 8.9 0.8 -0.1
v 8.8 0.8 -0.1
v 8.4 0.8 -0.1
v 8.3 0.8 -0.1
v 8.9 0.9 -0.1
v 8.8 0.9 -0.1
v 8.4 0.9 -0.1
v 8.3 0.9 -0.1
v 8.9 1.3 -0.1
v 8.8 1.3 -0.1
v 8.4 1.3 -0.1
v 8.3 1.3 -0.1
v 8.8 1.4 -0.1
v 8.4 1.4 -0.1
v 8.8 2.3 -0.1
v 8.4 2.3 -0.1
v 8.9 2.4 -0.1
v 8.8 2.4 -0.1
v 8.4 2.4 -0.1
v 8.3 2.4 -0.1
v 8.9 2.8 -0.1
v 8.8 2.8 -0.1
v 8.4 2.8 -0.1
v 8.3 2.8 -0.1
v 8.8 2.9 -0.1
v 8.4 2.9 -0.1
v 8.9 0.1 -1.7
v 8.8 0.1 -1.7
v 8.4 0.1 -1.7
v 8.3 0.1 -1.7
v 8.9 0.2 -1.7
v 8.8 0.2 -1.7
v 8.4 0.2 -1.7
v 8.3 0.2 -1.7
v 8.8 0.3 -1.7
v 8.4 0.3 -1.7
v 8.8 0.4 -1.7
v 8.4 0.4 -1.7
v 8.8 0.8 -1.7
v 8.4 0.8 -1.7
v 8.8 0.9 -1.7
v 8.4 0.9 -1.7
v 8.8 1.3 -1.7
v 8.4 1.3 -1.7
v 8.8 1.4 -1.7
v 8.4 1.4 -1.7
v 8.8 2.3 -1.7
v 8.4 2.3 -1.7
v 8.8 2.4 -1.7
v 8.4 2.4 -1.7
v 8.8 2.8 -1.7
v 8.4 2.8 -1.7
v 8.9 2.9 -1.7
v 8.3 2.9 -1.7
v 8.9 0.1 1.6
v 8.9 0.2 1.6
v 8.9 2.9 1.6
v 8.9 0.1 1.5
v 8.9 0.2 1.5
v 8.9 0.3 1.5
v 8.9 0.4 1.5
v 8.9 0.8 1.5
v 8.9 0.9 1.5
v 8.9 1.3 1.5
v 8.9 1.4 1.5
v 8.9 2.3 1.5
v 8.9 2.4 1.5
v 8.9 2.8 1.5
v 8.9 0.4 0
v 8.9 0.8 0
v 8.9 0.9 0
v 8.9 1.3 0
v 8.9 1.4 0
v 8.9 2.3 0
v 8.9 2.4 0
v 8.9 2.8 0
v 8.9 0.4 -0.1
v 8.9 0.8 -0.1
v 8.9 0.9 -0.1
v 8.9 1.3 -0.1
v 8.9 1.4 -0.1
v 8.9 2.3 -0.1
v 8.9 2.4 -0.1
v 8.9 2.8 -0.1
v 8.9 0.1 -1.6
v 8.9 0.2 -1.6
v 8.9 0.3 -1.6
v 8.9 0.4 -1.6
v 8.9 0.8 -1.6
v 8.9 0.9 -1.6
v 8.9 1.3 -1.6
v 8.9 1.4 -1.6
v 8.9 2.3 -1.6
v 8.9 2.4 -1.6
v 8.9 2.8 -1.6
v 8.9 0.1 -1.7
v 8.9 0.2 -1.7
v 8.9 2.9 -1.7
v 8.4 0.1 1.6
v 8.4 0.2 1.6
v 8.4 0.4 1.6
v 8.4 0.8 1.6
v 8.4 0.9 1.6
v 8.4 1.3 1.6
v 8.4 2.4 1.6
v 8.4 2.8 1.6
v 8.4 0.1 1.5
v 8.4 0.2 1.5
v 8.4 0.4 1.5
v 8.4 0.8 1.5
v 8.4 0.9 1.5
v 8.4 1.3 1.5
v 8.4 1.4 1.5
v 8.4 2.3 1.5
v 8.4 2.4 1.5
v 8.4 2.8 1.5
v 8.4 2.9 1.5
v 8.4 1.8 0.2
v 8.4 1.9 0.2
v 8.4 0.4 0
v 8.4 0.8 0
v 8.4 0.9 0
v 8.4 1.3 0
v 8.4 1.4 0
v 8.4 1.8 0
v 8.4 1.9 0
v 8.4 2.3 0
v 8.4 2.4 0
v 8.4 2.8 0
v 8.4 2.9 0
v 8.4 0.4 -0.1
v 8.4 0.8 -0.1
v 8.4 0.9 -0.1
v 8.4 1.3 -0.1
v 8.4 1.4 -0.1
v 8.4 2.3 -0.1
v 8.4 2.4 -0.1
v 8.4 2.8 -0.1
v 8.4 2.9 -0.1
v 8.4 0.1 -1.6
v 8.4 0.2 -1.6
v 8.4 0.3 -1.6
v 8.4 0.4 -1.6
v 8.4 0.8 -1.6
v 8.4 0.9 -1.6
v 8.4 1.3 -1.6
v 8.4 1.4 -1.6
v 8.4 2.3 -1.6
v 8.4 2.4 -1.6
v 8.4 2.8 -1.6
v 8.4 2.9 -1.6
v 8.4 0.1 -1.7
v 8.4 0.2 -1.7
v 8.4 0.3 -1.7
v 8.4 0.4 -1.7
v 8.4 0.8 -1.7
v 8.4 0.9 -1.7
v 8.4 1.3 -1.7
v 8.4 2.4 -1.7
v 8.4 2.8 -1.7
v 8.8 0.1 1.6
v 8.8 0.2 1.6
v 8.8 0.4 1.6
v 8.8 0.8 1.6
v 8.8 0.9 1.6
v 8.8 1.3 1.6
v 8.8 2.4 1.6
v 8.8 2.8 1.6
v 8.8 0.1 1.5
v 8.8 0.2 1.5
v 8.8 0.4 1.5
v 8.8 0.8 1.5
v 8.8 0.9 1.5
v 8.8 1.3 1.5
v 8.8 1.4 1.5
v 8.8 2.3 1.5
v 8.8 2.4 1.5
v 8.8 2.8 1.5
v 8.8 2.9 1.5
v 8.8 1.8 0.2
v 8.8 1.9 0.2
v 8.8 0.4 0
v 8.8 0.8 0
v 8.8 0.9 0
v 8.8 1.3 0
v 8.8 1.4 0
v 8.8 1.8 0
v 8.8 1.9 0
v 8.8 2.3 0
v 8.8 2.4 0
v 8.8 2.8 0
v 8.8 2.9 0
v 8.8 0.4 -0.1
v 8.8 0.8 -0.1
v 8.8 0.9 -0.1
v 8.8 1.3 -0.1
v 8.8 1.4 -0.1
v 8.8 2.3 -0.1
v 8.8 2.4 -0.1
v 8.8 2.8 -0.1
v 8.8 2.9 -0.1
v 8.8 0.1 -1.6
v 8.8 0.2 -1.6
v 8.8 0.3 -1.6
v 8.8 0.4 -1.6
v 8.8 0.8 -1.6
v 8.8 0.9 -1.6
v 8.8 1.3 -1.6
v 8.8 1.4 -1.6
v 8.8 2.3 -1.6
v 8.8 2.4 -1.6
v 8.8 2.8 -1.6
v 8.8 2.9 -1.6
v 8.8 0.1 -1.7
v 8.8 0.2 -1.7
v 8.8 0.3 -1.7
v 8.8 0.4 -1.7
v 8.8 0.8 -1.7
v 8.8 0.9 -1.7
v 8.8 1.3 -1.7
v 8.8 2.4 -1.7
v 8.8 2.8 -1.7
v 8.3 0.1 1.6
v 8.3 0.2 1.6
v 8.3 2.9 1.6
v 8.3 0.1 1.5
v 8.3 0.2 1.5
v 8.3 0.3 1.5
v 8.3 0.4 1.5
v 8.3 0.8 1.5
v 8.3 0.9 1.5
v 8.3 1.3 1.5
v 8.3 1.4 1.5
v 8.3 2.3 1.5
v 8.3 2.4 1.5
v 8.3 2.8 1.5
v 8.3 0.4 0
v 8.3 0.8 0
v 8.3 0.9 0
v 8.3 1.3 0
v 8.3 1.4 0
v 8.3 2.3 0
v 8.3 2.4 0
v 8.3 2.8 0
v 8.3 0.4 -0.1
v 8.3 0.8 -0.1
v 8.3 0.9 -0.1
v 8.3 1.3 -0.1
v 8.3 1.4 -0.1
v 8.3 2.3 -0.1
v 8.3 2.4 -0.1
v 8.3 2.8 -0.1
v 8.3 0.1 -1.6
v 8.3 0.2 -1.6
v 8.3 0.3 -1.6
v 8.3 0.4 -1.6
v 8.3 0.8 -1.6
v 8.3 0.9 -1.6
v 8.3 1.3 -1.6
v 8.3 1.4 -1.6
v 8.3 2.3 -1.6
v 8.3 2.4 -1.6
v 8.3 2.8 -1.6
v 8.3 0.1 -1.7
v 8.3 0.2 -1.7
v 8.3 2.9 -1.7
v 8.9 0.1 1.6
v 8.9 0.1 1.5
v 8.9 0.1 -1.6
v 8.9 0.1 -1.7
v 8.8 0.1 1.6
v 8.8 0.1 1.5
v 8.8 0.1 -1.6
v 8.8 0.1 -1.7
v 8.4 0.1 1.6
v 8.4 0.1 1.5
v 8.4 0.1 -1.6
v 8.4 0.1 -1.7
v 8.3 0.1 1.6
v 8.3 0.1 1.5
v 8.3 0.1 -1.6
v 8.3 0.1 -1.7
v 8.8 0.2 1.6
v 8.8 0.2 1.5
v 8.4 0.2 1.6
v 8.4 0.2 1.5
v 8.9 0.3 1.5
v 8.9 0.3 -1.6
v 8.8 0.3 1.5
v 8.8 0.3 0
v 8.8 0.3 -0.1
v 8.8 0.3 -1.6
v 8.8 0.3 -1.7
v 8.4 0.3 1.5
v 8.4 0.3 0
v 8.4 0.3 -0.1
v 8.4 0.3 -1.6
v 8.4 0.3 -1.7
v 8.3 0.3 1.5
v 8.3 0.3 -1.6
v 8.9 0.8 1.5
v 8.9 0.8 0
v 8.9 0.8 -0.1
v 8.9 0.8 -1.6
v 8.8 0.8 1.6
v 8.8 0.8 1.5
v 8.8 0.8 0
v 8.8 0.8 -0.1
v 8.8 0.8 -1.6
v 8.8 0.8 -1.7
v 8.4 0.8 1.6
v 8.4 0.8 1.5
v 8.4 0.8 0
v 8.4 0.8 -0.1
v 8.4 0.8 -1.6
v 8.4 0.8 -1.7
v 8.3 0.8 1.5
v 8.3 0.8 0
v 8.3 0.8 -0.1
v 8.3 0.8 -1.6
v 8.9 1.3 1.5
v 8.9 1.3 0
v 8.9 1.3 -0.1
v 8.9 1.3 -1.6
v 8.8 1.3 1.6
v 8.8 1.3 1.5
v 8.8 1.3 0
v 8.8 1.3 -0.1
v 8.8 1.3 -1.6
v 8.8 1.3 -1.7
v 8.4 1.3 1.6
v 8.4 1.3 1.5
v 8.4 1.3 0
v 8.4 1.3 -0.1
v 8.4 1.3 -1.6
v 8.4 1.3 -1.7
v 8.3 1.3 1.5
v 8.3 1.3 0
v 8.3 1.3 -0.1
v 8.3 1.3 -1.6
v 8.8 1.8 0.2
v 8.8 1.8 0
v 8.4 1.8 0.2
v 8.4 1.8 0
v 8.8 2.3 1.5
v 8.8 2.3 0
v 8.8 2.3 -0.1
v 8.8 2.3 -1.6
v 8.4 2.3 1.5
v 8.4 2.3 0
v 8.4 2.3 -0.1
v 8.4 2.3 -1.6
v 8.9 2.8 1.5
v 8.9 2.8 0
v 8.9 2.8 -0.1
v 8.9 2.8 -1.6
v 8.8 2.8 1.6
v 8.8 2.8 1.5
v 8.8 2.8 0
v 8.8 2.8 -0.1
v 8.8 2.8 -1.6
v 8.8 2.8 -1.7
v 8.4 2.8 1.6
v 8.4 2.8 1.5
v 8.4 2.8 0
v 8.4 2.8 -0.1
v 8.4 2.8 -1.6
v 8.4 2.8 -1.7
v 8.3 2.8 1.5
v 8.3 2.8 0
v 8.3 2.8 -0.1
v 8.3 2.8 -1.6
v 8.9 0.4 1.5
v 8.9 0.4 0
v 8.9 0.4 -0.1
v 8.9 0.4 -1.6
v 8.8 0.4 1.6
v 8.8 0.4 1.5
v 8.8 0.4 0
v 8.8 0.4 -0.1
v 8.8 0.4 -1.6
v 8.8 0.4 -1.7
v 8.4 0.4 1.6
v 8.4 0.4 1.5
v 8.4 0.4 0
v 8.4 0.4 -0.1
v 8.4 0.4 -1.6
v 8.4 0.4 -1.7
v 8.3 0.4 1.5
v 8.3 0.4 0
v 8.3 0.4 -0.1
v 8.3 0.4 -1.6
v 8.9 0.9 1.5
v 8.9 0.9 0
v 8.9 0.9 -0.1
v 8.9 0.9 -1.6
v 8.8 0.9 1.6
v 8.8 0.9 1.5
v 8.8 0.9 0
v 8.8 0.9 -0.1
v 8.8 0.9 -1.6
v 8.8 0.9 -1.7
v 8.4 0.9 1.6
v 8.4 0.9 1.5
v 8.4 0.9 0
v 8.4 0.9 -0.1
v 8.4 0.9 -1.6
v 8.4 0.9 -1.7
v 8.3 0.9 1.5
v 8.3 0.9 0
v 8.3 0.9 -0.1
v 8.3 0.9 -1.6
v 8.8 1.4 1.5
v 8.8 1.4 0
v 8.8 1.4 -0.1
v 8.8 1.4 -1.6
v 8.4 1.4 1.5
v 8.4 1.4 0
v 8.4 1.4 -0.1
v 8.4 1.4 -1.6
v 8.8 1.9 0.2
v 8.8 1.9 0
v 8.4 1.9 0.2
v 8.4 1.9 0
v 8.9 2.4 1.5
v 8.9 2.4 0
v 8.9 2.4 -0.1
v 8.9 2.4 -1.6
v 8.8 2.4 1.6
v 8.8 2.4 1.5
v 8.8 2.4 0
v 8.8 2.4 -0.1
v 8.8 2.4 -1.6
v 8.8 2.4 -1.7
v 8.4 2.4 1.6
v 8.4 2.4 1.5
v 8.4 2.4 0
v 8.4 2.4 -0.1
v 8.4 2.4 -1.6
v 8.4 2.4 -1.7
v 8.3 2.4 1.5
v 8.3 2.4 0
v 8.3 2.4 -0.1
v 8.3 2.4 -1.6
v 8.9 2.9 1.6
v 8.9 2.9 -1.7
v 8.8 2.9 1.5
v 8.8 2.9 0
v 8.8 2.9 -0.1
v 8.8 2.9 -1.6
v 8.4 2.9 1.5
v 8.4 2.9 0
v 8.4 2.9 -0.1
v 8.4 2.9 -1.6
v 8.3 2.9 1.6
v 8.3 2.9 -1.7

# faces
f 5/4/1 2/4/1 1/4/1
f 6/4/1 2/4/1 5/4/1
f 7/4/1 4/4/1 3/4/1
f 8/4/1 4/4/1 7/4/1
f 9/3/1 6/3/1 5/3/1
f 9/3/1 7/3/1 6/3/1
f 9/3/1 8/3/1 7/3/1
f 10/3/1 8/3/1 9/3/1
f 11/3/1 9/3/1 5/3/1
f 12/3/1 8/3/1 10/3/1
f 13/3/1 11/3/1 5/3/1
f 13/3/1 12/3/1 11/3/1
f 14/3/1 8/3/1 12/3/1
f 14/3/1 12/3/1 13/3/1
f 15/3/1 13/3/1 5/3/1
f 16/3/1 8/3/1 14/3/1
f 17/3/1 15/3/1 5/3/1
f 17/3/1 16/3/1 15/3/1
f 18/3/1 8/3/1 16/3/1
f 18/3/1 16/3/1 17/3/1
f 19/3/1 17/3/1 5/3/1
f 19/2/1 18/2/1 17/2/1
f 20/3/1 8/3/1 18/3/1
f 20/2/1 18/2/1 19/2/1
f 21/3/1 19/3/1 5/3/1
f 21/3/1 20/3/1 19/3/1
f 22/3/1 8/3/1 20/3/1
f 22/3/1 20/3/1 21/3/1
f 23/3/1 21/3/1 5/3/1
f 24/3/1 8/3/1 22/3/1
f 25/3/1 23/3/1 5/3/1
f 25/3/1 24/3/1 23/3/1
f 26/3/1 8/3/1 24/3/1
f 26/3/1 24/3/1 25/3/1
f 29/1/1 28/1/1 27/1/1
f 30/1/1 28/1/1 29/1/1
f 35/3/1 32/3/1 31/3/1
f 36/3/1 32/3/1 35/3/1
f 37/3/1 34/3/1 33/3/1
f 38/3/1 34/3/1 37/3/1
f 43/3/1 40/3/1 39/3/1
f 44/3/1 40/3/1 43/3/1
f 45/3/1 42/3/1 41/3/1
f 46/3/1 42/3/1 45/3/1
f 49/1/1 48/1/1 47/1/1
f 50/1/1 48/1/1 49/1/1
f 53/1/1 52/1/1 51/1/1
f 54/1/1 52/1/1 53/1/1
f 59/3/1 56/3/1 55/3/1
f 60/3/1 56/3/1 59/3/1
f 61/3/1 58/3/1 57/3/1
f 62/3/1 58/3/1 61/3/1
f 63/3/1 61/3/1 60/3/1
f 64/3/1 61/3/1 63/3/1
f 69/4/1 66/4/1 65/4/1
f 70/4/1 66/4/1 69/4/1
f 71/4/1 68/4/1 67/4/1
f 72/4/1 68/4/1 71/4/1
f 73/3/1 70/3/1 69/3/1
f 74/3/1 70/3/1 73/3/1
f 75/3/1 72/3/1 71/3/1
f 76/3/1 72/3/1 75/3/1
f 81/3/1 78/3/1 77/3/1
f 82/3/1 78/3/1 81/3/1
f 83/3/1 80/3/1 79/3/1
f 84/3/1 80/3/1 83/3/1
f 89/3/1 86/3/1 85/3/1
f 90/3/1 86/3/1 89/3/1
f 91/3/1 88/3/1 87/3/1
f 92/3/1 88/3/1 91/3/1
f 95/2/1 94/2/1 93/2/1
f 96/2/1 94/2/1 95/2/1
f 101/3/1 98/3/1 97/3/1
f 102/3/1 98/3/1 101/3/1
f 103/3/1 100/3/1 99/3/1
f 104/3/1 100/3/1 103/3/1
f 105/3/1 103/3/1 102/3/1
f 106/3/1 103/3/1 105/3/1
f 107/4/2 108/4/2 111/4/2
f 111/4/2 108/4/2 112/4/2
f 109/4/2 110/4/2 113/4/2
f 113/4/2 110/4/2 114/4/2
f 111/3/2 112/3/2 115/3/2
f 112/3/2 113/3/2 115/3/2
f 113/3/2 114/3/2 115/3/2
f 115/3/2 114/3/2 116/3/2
f 116/3/2 114/3/2 117/3/2
f 117/3/2 114/3/2 118/3/2
f 119/3/2 120/3/2 123/3/2
f 123/3/2 120/3/2 124/3/2
f 121/3/2 122/3/2 125/3/2
f 125/3/2 122/3/2 126/3/2
f 127/3/2 128/3/2 131/3/2
f 131/3/2 128/3/2 132/3/2
f 129/3/2 130/3/2 133/3/2
f 133/3/2 130/3/2 134/3/2
f 135/2/2 136/2/2 137/2/2
f 137/2/2 136/2/2 138/2/2
f 139/3/2 140/3/2 143/3/2
f 143/3/2 140/3/2 144/3/2
f 141/3/2 142/3/2 145/3/2
f 145/3/2 142/3/2 146/3/2
f 144/3/2 145/3/2 147/3/2
f 147/3/2 145/3/2 148/3/2
f 149/3/2 150/3/2 153/3/2
f 153/3/2 150/3/2 154/3/2
f 151/3/2 152/3/2 155/3/2
f 155/3/2 152/3/2 156/3/2
f 157/3/2 158/3/2 161/3/2
f 161/3/2 158/3/2 162/3/2
f 159/3/2 160/3/2 163/3/2
f 163/3/2 160/3/2 164/3/2
f 165/1/2 166/1/2 167/1/2
f 167/1/2 166/1/2 168/1/2
f 169/3/2 170/3/2 173/3/2
f 173/3/2 170/3/2 174/3/2
f 171/3/2 172/3/2 175/3/2
f 175/3/2 172/3/2 176/3/2
f 174/3/2 175/3/2 177/3/2
f 177/3/2 175/3/2 178/3/2
f 179/4/2 180/4/2 183/4/2
f 183/4/2 180/4/2 184/4/2
f 181/4/2 182/4/2 185/4/2
f 185/4/2 182/4/2 186/4/2
f 183/3/2 184/3/2 187/3/2
f 185/3/2 186/3/2 188/3/2
f 183/3/2 187/3/2 189/3/2
f 187/3/2 188/3/2 189/3/2
f 188/3/2 186/3/2 190/3/2
f 189/3/2 188/3/2 190/3/2
f 183/3/2 189/3/2 191/3/2
f 190/3/2 186/3/2 192/3/2
f 183/3/2 191/3/2 193/3/2
f 191/3/2 192/3/2 193/3/2
f 192/3/2 186/3/2 194/3/2
f 193/3/2 192/3/2 194/3/2
f 183/3/2 193/3/2 195/3/2
f 194/3/2 186/3/2 196/3/2
f 183/3/2 195/3/2 197/3/2
f 195/3/2 196/3/2 197/3/2
f 196/3/2 186/3/2 198/3/2
f 197/3/2 196/3/2 198/3/2
f 183/3/2 197/3/2 199/3/2
f 197/2/2 198/2/2 199/2/2
f 198/3/2 186/3/2 200/3/2
f 199/2/2 198/2/2 200/2/2
f 183/3/2 199/3/2 201/3/2
f 199/3/2 200/3/2 201/3/2
f 200/3/2 186/3/2 202/3/2
f 201/3/2 200/3/2 202/3/2
f 183/3/2 201/3/2 203/3/2
f 202/3/2 186/3/2 204/3/2
f 183/3/2 203/3/2 205/3/2
f 203/3/2 204/3/2 205/3/2
f 204/3/2 186/3/2 206/3/2
f 205/3/2 204/3/2 206/3/2
f 210/4/3 208/4/3 207/4/3
f 211/3/3 209/3/3 208/3/3
f 211/4/3 208/4/3 210/4/3
f 212/3/3 209/3/3 211/3/3
f 213/3/3 209/3/3 212/3/3
f 214/3/3 209/3/3 213/3/3
f 215/3/3 209/3/3 214/3/3
f 216/3/3 209/3/3 215/3/3
f 217/3/3 209/3/3 216/3/3
f 218/3/3 209/3/3 217/3/3
f 219/3/3 209/3/3 218/3/3
f 220/3/3 209/3/3 219/3/3
f 221/3/3 213/3/3 212/3/3
f 222/3/3 215/3/3 214/3/3
f 223/3/3 215/3/3 222/3/3
f 224/3/3 217/3/3 216/3/3
f 225/2/3 218/2/3 217/2/3
f 225/3/3 217/3/3 224/3/3
f 226/3/3 219/3/3 218/3/3
f 226/2/3 218/2/3 225/2/3
f 227/3/3 219/3/3 226/3/3
f 228/3/3 209/3/3 220/3/3
f 229/3/3 227/3/3 226/3/3
f 229/3/3 228/3/3 227/3/3
f 229/3/3 225/3/3 224/3/3
f 229/3/3 224/3/3 223/3/3
f 229/3/3 226/3/3 225/3/3
f 229/3/3 223/3/3 222/3/3
f 229/3/3 222/3/3 221/3/3
f 229/3/3 221/3/3 212/3/3
f 230/3/3 228/3/3 229/3/3
f 231/3/3 228/3/3 230/3/3
f 232/3/3 228/3/3 231/3/3
f 233/3/3 228/3/3 232/3/3
f 234/3/3 228/3/3 233/3/3
f 235/3/3 228/3/3 234/3/3
f 236/3/3 209/3/3 228/3/3
f 236/3/3 228/3/3 235/3/3
f 239/3/3 229/3/3 212/3/3
f 240/3/3 229/3/3 239/3/3
f 241/3/3 231/3/3 230/3/3
f 242/3/3 231/3/3 241/3/3
f 243/3/3 233/3/3 232/3/3
f 244/2/3 234/2/3 233/2/3
f 244/3/3 233/3/3 243/3/3
f 245/3/3 235/3/3 234/3/3
f 245/2/3 234/2/3 244/2/3
f 246/3/3 235/3/3 245/3/3
f 247/3/3 209/3/3 236/3/3
f 248/4/3 238/4/3 237/4/3
f 249/3/3 244/3/3 243/3/3
f 249/4/3 238/4/3 248/4/3
f 249/3/3 247/3/3 246/3/3
f 249/3/3 246/3/3 245/3/3
f 249/3/3 240/3/3 239/3/3
f 249/3/3 245/3/3 244/3/3
f 249/3/3 243/3/3 242/3/3
f 249/3/3 241/3/3 240/3/3
f 249/3/3 242/3/3 241/3/3
f 249/3/3 239/3/3 238/3/3
f 250/3/3 209/3/3 247/3/3
f 250/3/3 247/3/3 249/3/3
f 259/4/3 252/4/3 251/4/3
f 260/4/3 252/4/3 259/4/3
f 261/3/3 254/3/3 253/3/3
f 262/3/3 254/3/3 261/3/3
f 263/3/3 256/3/3 255/3/3
f 264/3/3 256/3/3 263/3/3
f 267/3/3 258/3/3 257/3/3
f 268/3/3 258/3/3 267/3/3
f 270/2/3 266/2/3 265/2/3
f 271/2/3 266/2/3 270/2/3
f 276/2/3 270/2/3 265/2/3
f 277/2/3 270/2/3 276/2/3
f 278/2/3 266/2/3 271/2/3
f 279/2/3 266/2/3 278/2/3
f 281/3/3 269/3/3 268/3/3
f 282/3/3 269/3/3 281/3/3
f 283/3/3 273/3/3 272/3/3
f 284/3/3 273/3/3 283/3/3
f 285/3/3 275/3/3 274/3/3
f 286/3/3 275/3/3 285/3/3
f 289/3/3 281/3/3 280/3/3
f 290/3/3 281/3/3 289/3/3
f 299/2/3 288/2/3 287/2/3
f 300/2/3 288/2/3 299/2/3
f 302/3/3 291/3/3 290/3/3
f 303/3/3 291/3/3 302/3/3
f 304/4/3 293/4/3 292/4/3
f 305/3/3 294/3/3 293/3/3
f 305/4/3 293/4/3 304/4/3
f 306/3/3 294/3/3 305/3/3
f 307/3/3 296/3/3 295/3/3
f 308/3/3 296/3/3 307/3/3
f 309/3/3 298/3/3 297/3/3
f 310/3/3 298/3/3 309/3/3
f 311/3/3 302/3/3 301/3/3
f 312/3/3 302/3/3 311/3/3
f 313/4/4 314/4/4 321/4/4
f 321/4/4 314/4/4 322/4/4
f 315/3/4 316/3/4 323/3/4
f 323/3/4 316/3/4 324/3/4
f 317/3/4 318/3/4 325/3/4
f 325/3/4 318/3/4 326/3/4
f 319/3/4 320/3/4 329/3/4
f 329/3/4 320/3/4 330/3/4
f 327/2/4 328/2/4 332/2/4
f 332/2/4 328/2/4 333/2/4
f 327/2/4 332/2/4 338/2/4
f 338/2/4 332/2/4 339/2/4
f 333/2/4 328/2/4 340/2/4
f 340/2/4 328/2/4 341/2/4
f 330/3/4 331/3/4 343/3/4
f 343/3/4 331/3/4 344/3/4
f 334/3/4 335/3/4 345/3/4
f 345/3/4 335/3/4 346/3/4
f 336/3/4 337/3/4 347/3/4
f 347/3/4 337/3/4 348/3/4
f 342/3/4 343/3/4 351/3/4
f 351/3/4 343/3/4 352/3/4
f 349/2/4 350/2/4 361/2/4
f 361/2/4 350/2/4 362/2/4
f 352/3/4 353/3/4 364/3/4
f 364/3/4 353/3/4 365/3/4
f 354/4/4 355/4/4 366/4/4
f 355/3/4 356/3/4 367/3/4
f 366/4/4 355/4/4 367/4/4
f 367/3/4 356/3/4 368/3/4
f 357/3/4 358/3/4 369/3/4
f 369/3/4 358/3/4 370/3/4
f 359/3/4 360/3/4 371/3/4
f 371/3/4 360/3/4 372/3/4
f 363/3/4 364/3/4 373/3/4
f 373/3/4 364/3/4 374/3/4
f 375/4/4 376/4/4 378/4/4
f 376/3/4 377/3/4 379/3/4
f 378/4/4 376/4/4 379/4/4
f 379/3/4 377/3/4 380/3/4
f 380/3/4 377/3/4 381/3/4
f 381/3/4 377/3/4 382/3/4
f 382/3/4 377/3/4 383/3/4
f 383/3/4 377/3/4 384/3/4
f 384/3/4 377/3/4 385/3/4
f 385/3/4 377/3/4 386/3/4
f 386/3/4 377/3/4 387/3/4
f 387/3/4 377/3/4 388/3/4
f 380/3/4 381/3/4 389/3/4
f 382/3/4 383/3/4 390/3/4
f 390/3/4 383/3/4 391/3/4
f 384/3/4 385/3/4 392/3/4
f 385/2/4 386/2/4 393/2/4
f 392/3/4 385/3/4 393/3/4
f 386/3/4 387/3/4 394/3/4
f 393/2/4 386/2/4 394/2/4
f 394/3/4 387/3/4 395/3/4
f 388/3/4 377/3/4 396/3/4
f 394/3/4 395/3/4 397/3/4
f 395/3/4 396/3/4 397/3/4
f 392/3/4 393/3/4 397/3/4
f 391/3/4 392/3/4 397/3/4
f 393/3/4 394/3/4 397/3/4
f 390/3/4 391/3/4 397/3/4
f 389/3/4 390/3/4 397/3/4
f 380/3/4 389/3/4 397/3/4
f 397/3/4 396/3/4 398/3/4
f 398/3/4 396/3/4 399/3/4
f 399/3/4 396/3/4 400/3/4
f 400/3/4 396/3/4 401/3/4
f 401/3/4 396/3/4 402/3/4
f 402/3/4 396/3/4 403/3/4
f 396/3/4 377/3/4 404/3/4
f 403/3/4 396/3/4 404/3/4
f 380/3/4 397/3/4 407/3/4
f 407/3/4 397/3/4 408/3/4
f 398/3/4 399/3/4 409/3/4
f 409/3/4 399/3/4 410/3/4
f 400/3/4 401/3/4 411/3/4
f 401/2/4 402/2/4 412/2/4
f 411/3/4 401/3/4 412/3/4
f 402/3/4 403/3/4 413/3/4
f 412/2/4 402/2/4 413/2/4
f 413/3/4 403/3/4 414/3/4
f 404/3/4 377/3/4 415/3/4
f 405/4/4 406/4/4 416/4/4
f 411/3/4 412/3/4 417/3/4
f 416/4/4 406/4/4 417/4/4
f 414/3/4 415/3/4 417/3/4
f 413/3/4 414/3/4 417/3/4
f 407/3/4 408/3/4 417/3/4
f 412/3/4 413/3/4 417/3/4
f 410/3/4 411/3/4 417/3/4
f 408/3/4 409/3/4 417/3/4
f 409/3/4 410/3/4 417/3/4
f 406/3/4 407/3/4 417/3/4
f 415/3/4 377/3/4 418/3/4
f 417/3/4 415/3/4 418/3/4
f 423/4/5 420/4/5 419/4/5
f 424/4/5 420/4/5 423/4/5
f 425/4/5 422/4/5 421/4/5
f 426/4/5 422/4/5 425/4/5
f 431/4/5 428/4/5 427/4/5
f 432/4/5 428/4/5 431/4/5
f 433/4/5 430/4/5 429/4/5
f 434/4/5 430/4/5 433/4/5
f 437/3/5 436/3/5 435/3/5
f 438/3/5 436/3/5 437/3/5
f 441/3/5 440/3/5 439/3/5
f 442/3/5 440/3/5 441/3/5
f 443/3/5 440/3/5 442/3/5
f 444/3/5 440/3/5 443/3/5
f 446/2/5 442/2/5 441/2/5
f 447/3/5 443/3/5 442/3/5
f 447/2/5 442/2/5 446/2/5
f 448/2/5 444/2/5 443/2/5
f 448/3/5 443/3/5 447/3/5
f 449/3/5 445/3/5 444/3/5
f 449/2/5 444/2/5 448/2/5
f 450/3/5 445/3/5 449/3/5
f 451/3/5 448/3/5 447/3/5
f 451/3/5 447/3/5 446/3/5
f 451/3/5 449/3/5 448/3/5
f 452/3/5 449/3/5 451/3/5
f 458/3/5 454/3/5 453/3/5
f 459/3/5 454/3/5 458/3/5
f 460/3/5 456/3/5 455/3/5
f 461/3/5 456/3/5 460/3/5
f 463/3/5 458/3/5 457/3/5
f 464/2/5 459/2/5 458/2/5
f 464/3/5 458/3/5 463/3/5
f 465/3/5 460/3/5 459/3/5
f 465/2/5 459/2/5 464/2/5
f 466/2/5 461/2/5 460/2/5
f 466/3/5 460/3/5 465/3/5
f 467/3/5 462/3/5 461/3/5
f 467/2/5 461/2/5 466/2/5
f 468/3/5 462/3/5 467/3/5
f 469/3/5 465/3/5 464/3/5
f 470/3/5 465/3/5 469/3/5
f 471/3/5 467/3/5 466/3/5
f 472/3/5 467/3/5 471/3/5
f 478/3/5 474/3/5 473/3/5
f 479/3/5 474/3/5 478/3/5
f 480/3/5 476/3/5 475/3/5
f 481/3/5 476/3/5 480/3/5
f 483/3/5 478/3/5 477/3/5
f 484/1/5 479/1/5 478/1/5
f 484/3/5 478/3/5 483/3/5
f 485/3/5 480/3/5 479/3/5
f 485/1/5 479/1/5 484/1/5
f 486/1/5 481/1/5 480/1/5
f 486/3/5 480/3/5 485/3/5
f 487/3/5 482/3/5 481/3/5
f 487/1/5 481/1/5 486/1/5
f 488/3/5 482/3/5 487/3/5
f 489/3/5 485/3/5 484/3/5
f 490/3/5 485/3/5 489/3/5
f 491/3/5 487/3/5 486/3/5
f 492/3/5 487/3/5 491/3/5
f 495/1/5 494/1/5 493/1/5
f 496/1/5 494/1/5 495/1/5
f 501/2/5 498/2/5 497/2/5
f 502/2/5 498/2/5 501/2/5
f 503/2/5 500/2/5 499/2/5
f 504/2/5 500/2/5 503/2/5
f 510/3/5 506/3/5 505/3/5
f 511/3/5 506/3/5 510/3/5
f 512/3/5 508/3/5 507/3/5
f 513/3/5 508/3/5 512/3/5
f 515/3/5 510/3/5 509/3/5
f 516/3/5 510/3/5 515/3/5
f 517/3/5 512/3/5 511/3/5
f 518/3/5 512/3/5 517/3/5
f 519/3/5 514/3/5 513/3/5
f 520/3/5 514/3/5 519/3/5
f 521/3/5 517/3/5 516/3/5
f 522/3/5 517/3/5 521/3/5
f 523/3/5 519/3/5 518/3/5
f 524/3/5 519/3/5 523/3/5
f 525/3/6 526/3/6 530/3/6
f 530/3/6 526/3/6 531/3/6
f 527/3/6 528/3/6 532/3/6
f 532/3/6 528/3/6 533/3/6
f 529/3/6 530/3/6 535/3/6
f 530/2/6 531/2/6 536/2/6
f 535/3/6 530/3/6 536/3/6
f 531/3/6 532/3/6 537/3/6
f 536/2/6 531/2/6 537/2/6
f 532/2/6 533/2/6 538/2/6
f 537/3/6 532/3/6 538/3/6
f 533/3/6 534/3/6 539/3/6
f 538/2/6 533/2/6 539/2/6
f 539/3/6 534/3/6 540/3/6
f 536/3/6 537/3/6 541/3/6
f 541/3/6 537/3/6 542/3/6
f 538/3/6 539/3/6 543/3/6
f 543/3/6 539/3/6 544/3/6
f 545/3/6 546/3/6 550/3/6
f 550/3/6 546/3/6 551/3/6
f 547/3/6 548/3/6 552/3/6
f 552/3/6 548/3/6 553/3/6
f 549/3/6 550/3/6 555/3/6
f 550/2/6 551/2/6 556/2/6
f 555/3/6 550/3/6 556/3/6
f 551/3/6 552/3/6 557/3/6
f 556/2/6 551/2/6 557/2/6
f 552/2/6 553/2/6 558/2/6
f 557/3/6 552/3/6 558/3/6
f 553/3/6 554/3/6 559/3/6
f 558/2/6 553/2/6 559/2/6
f 559/3/6 554/3/6 560/3/6
f 556/3/6 557/3/6 561/3/6
f 561/3/6 557/3/6 562/3/6
f 558/3/6 559/3/6 563/3/6
f 563/3/6 559/3/6 564/3/6
f 565/1/6 566/1/6 569/1/6
f 569/1/6 566/1/6 570/1/6
f 567/1/6 568/1/6 571/1/6
f 571/1/6 568/1/6 572/1/6
f 573/1/6 574/1/6 575/1/6
f 575/1/6 574/1/6 576/1/6
f 577/3/6 578/3/6 582/3/6
f 582/3/6 578/3/6 583/3/6
f 579/3/6 580/3/6 584/3/6
f 584/3/6 580/3/6 585/3/6
f 581/3/6 582/3/6 587/3/6
f 582/2/6 583/2/6 588/2/6
f 587/3/6 582/3/6 588/3/6
f 583/3/6 584/3/6 589/3/6
f 588/2/6 583/2/6 589/2/6
f 584/2/6 585/2/6 590/2/6
f 589/3/6 584/3/6 590/3/6
f 585/3/6 586/3/6 591/3/6
f 590/2/6 585/2/6 591/2/6
f 591/3/6 586/3/6 592/3/6
f 588/3/6 589/3/6 593/3/6
f 593/3/6 589/3/6 594/3/6
f 590/3/6 591/3/6 595/3/6
f 595/3/6 591/3/6 596/3/6
f 597/3/6 598/3/6 599/3/6
f 599/3/6 598/3/6 600/3/6
f 600/3/6 598/3/6 601/3/6
f 601/3/6 598/3/6 602/3/6
f 597/3/6 599/3/6 603/3/6
f 600/3/6 601/3/6 604/3/6
f 604/3/6 601/3/6 605/3/6
f 602/3/6 598/3/6 606/3/6
f 604/3/6 605/3/6 607/3/6
f 605/3/6 606/3/6 607/3/6
f 597/3/6 603/3/6 607/3/6
f 603/3/6 604/3/6 607/3/6
f 606/3/6 598/3/6 608/3/6
f 607/3/6 606/3/6 608/3/6
