# MagicaVoxel @ Ephtracy

# group
o 

# material
mtllib dice_2og-14.mtl
usemtl palette

# normals
vn -1 0 0
vn 1 0 0
vn 0 0 1
vn 0 0 -1
vn 0 -1 0
vn 0 1 0

# texcoords
vt 0.833984 0.5
vt 0.958984 0.5

# verts
v 13.5 0.1 5.2
v 13.5 0.1 5.1
v 13.5 0.1 4.8
v 13.5 0.1 4.7
v 13.5 0.3 5.1
v 13.5 0.3 4.8
v 13.5 0.6 5.2
v 13.5 0.6 4.7
v 13.5 0.7 5.2
v 13.5 0.7 4.7
v 15.7 0.1 5.2
v 15.7 0.1 5.1
v 15.7 0.1 4.8
v 15.7 0.1 4.7
v 15.7 0.3 5.2
v 15.7 0.3 5.1
v 15.7 0.3 4.8
v 15.7 0.3 4.7
v 15.8 0.7 5.2
v 15.8 0.7 4.7
v 15.8 1.4 5.2
v 15.8 1.4 4.7
v 17.9 0.1 5.2
v 17.9 0.1 5.1
v 17.9 0.1 4.8
v 17.9 0.1 4.7
v 17.9 0.3 5.2
v 17.9 0.3 5.1
v 17.9 0.3 4.8
v 17.9 0.3 4.7
v 17.9 0.4 5.1
v 17.9 0.4 4.8
v 17.9 1.3 5.1
v 17.9 1.3 4.8
v 13.6 0.1 5.2
v 13.6 0.1 5.1
v 13.6 0.1 4.8
v 13.6 0.1 4.7
v 13.6 0.3 5.2
v 13.6 0.3 5.1
v 13.6 0.3 4.8
v 13.6 0.3 4.7
v 15.9 0.1 5.2
v 15.9 0.1 5.1
v 15.9 0.1 4.8
v 15.9 0.1 4.7
v 15.9 0.3 5.2
v 15.9 0.3 5.1
v 15.9 0.3 4.8
v 15.9 0.3 4.7
v 15.9 0.4 5.1
v 15.9 0.4 4.8
v 15.9 1.3 5.1
v 15.9 1.3 4.8
v 18 0.1 5.2
v 18 0.1 5.1
v 18 0.1 4.8
v 18 0.1 4.7
v 18 0.3 5.1
v 18 0.3 4.8
v 18 1.4 5.2
v 18 1.4 4.7
v 13.5 0.1 5.2
v 13.5 0.6 5.2
v 13.5 0.7 5.2
v 13.6 0.1 5.2
v 13.6 0.3 5.2
v 15.7 0.1 5.2
v 15.7 0.3 5.2
v 15.8 0.6 5.2
v 15.8 0.7 5.2
v 15.8 1.4 5.2
v 15.9 0.1 5.2
v 15.9 0.3 5.2
v 17.9 0.1 5.2
v 17.9 0.3 5.2
v 18 0.1 5.2
v 18 1.4 5.2
v 13.5 0.1 4.8
v 13.5 0.3 4.8
v 13.6 0.1 4.8
v 13.6 0.3 4.8
v 15.7 0.1 4.8
v 15.7 0.3 4.8
v 15.9 0.1 4.8
v 15.9 0.3 4.8
v 15.9 0.4 4.8
v 15.9 1.3 4.8
v 17.9 0.1 4.8
v 17.9 0.3 4.8
v 17.9 0.4 4.8
v 17.9 1.3 4.8
v 18 0.1 4.8
v 18 0.3 4.8
v 13.5 0.1 5.1
v 13.5 0.3 5.1
v 13.6 0.1 5.1
v 13.6 0.3 5.1
v 15.7 0.1 5.1
v 15.7 0.3 5.1
v 15.9 0.1 5.1
v 15.9 0.3 5.1
v 15.9 0.4 5.1
v 15.9 1.3 5.1
v 17.9 0.1 5.1
v 17.9 0.3 5.1
v 17.9 0.4 5.1
v 17.9 1.3 5.1
v 18 0.1 5.1
v 18 0.3 5.1
v 13.5 0.1 4.7
v 13.5 0.6 4.7
v 13.5 0.7 4.7
v 13.6 0.1 4.7
v 13.6 0.3 4.7
v 15.7 0.1 4.7
v 15.7 0.3 4.7
v 15.8 0.6 4.7
v 15.8 0.7 4.7
v 15.8 1.4 4.7
v 15.9 0.1 4.7
v 15.9 0.3 4.7
v 17.9 0.1 4.7
v 17.9 0.3 4.7
v 18 0.1 4.7
v 18 1.4 4.7
v 13.5 0.1 5.2
v 13.6 0.1 5.2
v 15.7 0.1 5.2
v 15.9 0.1 5.2
v 17.9 0.1 5.2
v 18 0.1 5.2
v 13.5 0.1 5.1
v 13.6 0.1 5.1
v 15.7 0.1 5.1
v 15.9 0.1 5.1
v 17.9 0.1 5.1
v 18 0.1 5.1
v 13.5 0.1 4.8
v 13.6 0.1 4.8
v 15.7 0.1 4.8
v 15.9 0.1 4.8
v 17.9 0.1 4.8
v 18 0.1 4.8
v 13.5 0.1 4.7
v 13.6 0.1 4.7
v 15.7 0.1 4.7
v 15.9 0.1 4.7
v 17.9 0.1 4.7
v 18 0.1 4.7
v 13.6 0.3 5.2
v 15.7 0.3 5.2
v 15.9 0.3 5.2
v 17.9 0.3 5.2
v 13.5 0.3 5.1
v 13.6 0.3 5.1
v 15.7 0.3 5.1
v 15.9 0.3 5.1
v 17.9 0.3 5.1
v 18 0.3 5.1
v 13.5 0.3 4.8
v 13.6 0.3 4.8
v 15.7 0.3 4.8
v 15.9 0.3 4.8
v 17.9 0.3 4.8
v 18 0.3 4.8
v 13.6 0.3 4.7
v 15.7 0.3 4.7
v 15.9 0.3 4.7
v 17.9 0.3 4.7
v 15.9 1.3 5.1
v 17.9 1.3 5.1
v 15.9 1.3 4.8
v 17.9 1.3 4.8
v 15.9 0.4 5.1
v 17.9 0.4 5.1
v 15.9 0.4 4.8
v 17.9 0.4 4.8
v 13.5 0.7 5.2
v 15.8 0.7 5.2
v 13.5 0.7 4.7
v 15.8 0.7 4.7
v 15.8 1.4 5.2
v 18 1.4 5.2
v 15.8 1.4 4.7
v 18 1.4 4.7

# faces
f 5/2/1 2/2/1 1/2/1
f 6/2/1 4/2/1 3/2/1
f 7/2/1 5/2/1 1/2/1
f 7/2/1 6/2/1 5/2/1
f 8/2/1 4/2/1 6/2/1
f 8/2/1 6/2/1 7/2/1
f 9/1/1 8/1/1 7/1/1
f 10/1/1 8/1/1 9/1/1
f 15/2/1 12/2/1 11/2/1
f 16/2/1 12/2/1 15/2/1
f 17/2/1 14/2/1 13/2/1
f 18/2/1 14/2/1 17/2/1
f 21/2/1 20/2/1 19/2/1
f 22/2/1 20/2/1 21/2/1
f 27/2/1 24/2/1 23/2/1
f 28/2/1 24/2/1 27/2/1
f 29/2/1 26/2/1 25/2/1
f 30/2/1 26/2/1 29/2/1
f 33/2/1 32/2/1 31/2/1
f 34/2/1 32/2/1 33/2/1
f 35/2/2 36/2/2 39/2/2
f 39/2/2 36/2/2 40/2/2
f 37/2/2 38/2/2 41/2/2
f 41/2/2 38/2/2 42/2/2
f 43/2/2 44/2/2 47/2/2
f 47/2/2 44/2/2 48/2/2
f 45/2/2 46/2/2 49/2/2
f 49/2/2 46/2/2 50/2/2
f 51/2/2 52/2/2 53/2/2
f 53/2/2 52/2/2 54/2/2
f 55/2/2 56/2/2 59/2/2
f 57/2/2 58/2/2 60/2/2
f 55/2/2 59/2/2 61/2/2
f 59/2/2 60/2/2 61/2/2
f 60/2/2 58/2/2 62/2/2
f 61/2/2 60/2/2 62/2/2
f 66/2/3 64/2/3 63/2/3
f 67/2/3 64/2/3 66/2/3
f 69/2/3 64/2/3 67/2/3
f 70/1/3 65/1/3 64/1/3
f 70/2/3 69/2/3 68/2/3
f 70/2/3 64/2/3 69/2/3
f 71/1/3 65/1/3 70/1/3
f 73/2/3 70/2/3 68/2/3
f 73/2/3 72/2/3 71/2/3
f 73/2/3 71/2/3 70/2/3
f 74/2/3 72/2/3 73/2/3
f 76/2/3 72/2/3 74/2/3
f 77/2/3 76/2/3 75/2/3
f 78/2/3 72/2/3 76/2/3
f 78/2/3 76/2/3 77/2/3
f 81/2/3 80/2/3 79/2/3
f 82/2/3 80/2/3 81/2/3
f 85/2/3 84/2/3 83/2/3
f 86/2/3 84/2/3 85/2/3
f 91/2/3 88/2/3 87/2/3
f 92/2/3 88/2/3 91/2/3
f 93/2/3 90/2/3 89/2/3
f 94/2/3 90/2/3 93/2/3
f 95/2/4 96/2/4 97/2/4
f 97/2/4 96/2/4 98/2/4
f 99/2/4 100/2/4 101/2/4
f 101/2/4 100/2/4 102/2/4
f 103/2/4 104/2/4 107/2/4
f 107/2/4 104/2/4 108/2/4
f 105/2/4 106/2/4 109/2/4
f 109/2/4 106/2/4 110/2/4
f 111/2/4 112/2/4 114/2/4
f 114/2/4 112/2/4 115/2/4
f 115/2/4 112/2/4 117/2/4
f 112/1/4 113/1/4 118/1/4
f 116/2/4 117/2/4 118/2/4
f 117/2/4 112/2/4 118/2/4
f 118/1/4 113/1/4 119/1/4
f 116/2/4 118/2/4 121/2/4
f 119/2/4 120/2/4 121/2/4
f 118/2/4 119/2/4 121/2/4
f 121/2/4 120/2/4 122/2/4
f 122/2/4 120/2/4 124/2/4
f 123/2/4 124/2/4 125/2/4
f 124/2/4 120/2/4 126/2/4
f 125/2/4 124/2/4 126/2/4
f 133/2/5 128/2/5 127/2/5
f 134/2/5 128/2/5 133/2/5
f 135/2/5 130/2/5 129/2/5
f 136/2/5 130/2/5 135/2/5
f 137/2/5 132/2/5 131/2/5
f 138/2/5 132/2/5 137/2/5
f 145/2/5 140/2/5 139/2/5
f 146/2/5 140/2/5 145/2/5
f 147/2/5 142/2/5 141/2/5
f 148/2/5 142/2/5 147/2/5
f 149/2/5 144/2/5 143/2/5
f 150/2/5 144/2/5 149/2/5
f 156/2/5 152/2/5 151/2/5
f 157/2/5 152/2/5 156/2/5
f 158/2/5 154/2/5 153/2/5
f 159/2/5 154/2/5 158/2/5
f 161/2/5 157/2/5 156/2/5
f 161/2/5 160/2/5 159/2/5
f 161/2/5 159/2/5 158/2/5
f 161/2/5 158/2/5 157/2/5
f 161/2/5 156/2/5 155/2/5
f 162/2/5 160/2/5 161/2/5
f 163/2/5 160/2/5 162/2/5
f 164/2/5 160/2/5 163/2/5
f 165/2/5 160/2/5 164/2/5
f 166/2/5 160/2/5 165/2/5
f 167/2/5 163/2/5 162/2/5
f 168/2/5 163/2/5 167/2/5
f 169/2/5 165/2/5 164/2/5
f 170/2/5 165/2/5 169/2/5
f 173/2/5 172/2/5 171/2/5
f 174/2/5 172/2/5 173/2/5
f 175/2/6 176/2/6 177/2/6
f 177/2/6 176/2/6 178/2/6
f 179/1/6 180/1/6 181/1/6
f 181/1/6 180/1/6 182/1/6
f 183/2/6 184/2/6 185/2/6
f 185/2/6 184/2/6 186/2/6
