# MagicaVoxel @ Ephtracy

# group
o joyn platform

# material
mtllib dice_2og-37-joyn platform.mtl
usemtl palette

# normals
vn -1 0 0
vn 1 0 0
vn 0 0 1
vn 0 0 -1
vn 0 -1 0
vn 0 1 0

# texcoords
vt 0.0957031 0.5
vt 0.681641 0.5
vt 0.958984 0.5

# verts
v 13.7 1 9.3
v 13.7 1 7.1
v 13.7 1.1 9.3
v 13.7 1.1 7.1
v 14.4 0.1 8.8
v 14.4 0.1 8.7
v 14.4 0.1 7.7
v 14.4 0.1 7.6
v 14.4 1 8.8
v 14.4 1 8.7
v 14.4 1 7.7
v 14.4 1 7.6
v 16.2 0.4 9.7
v 16.2 0.4 8.9
v 16.2 1 9.3
v 16.2 1 8.9
v 16.2 1.1 9.3
v 16.2 1.1 8.9
v 16.2 1.7 9.7
v 16.2 1.7 8.9
v 18.2 0.4 7.5
v 18.2 0.4 6.7
v 18.2 1 7.5
v 18.2 1 7.1
v 18.2 1.1 7.5
v 18.2 1.1 7.1
v 18.2 1.7 7.5
v 18.2 1.7 6.7
v 20 0.1 8.8
v 20 0.1 8.7
v 20 0.1 7.7
v 20 0.1 7.6
v 20 1 8.8
v 20 1 8.7
v 20 1 7.7
v 20 1 7.6
v 14.5 0.1 8.8
v 14.5 0.1 8.7
v 14.5 0.1 7.7
v 14.5 0.1 7.6
v 14.5 1 8.8
v 14.5 1 8.7
v 14.5 1 7.7
v 14.5 1 7.6
v 16.3 0.4 9.7
v 16.3 0.4 8.9
v 16.3 1 9.3
v 16.3 1 8.9
v 16.3 1.1 9.3
v 16.3 1.1 8.9
v 16.3 1.7 9.7
v 16.3 1.7 8.9
v 18.3 0.4 7.5
v 18.3 0.4 6.7
v 18.3 1 7.5
v 18.3 1 7.1
v 18.3 1.1 7.5
v 18.3 1.1 7.1
v 18.3 1.7 7.5
v 18.3 1.7 6.7
v 20.1 0.1 8.8
v 20.1 0.1 8.7
v 20.1 0.1 7.7
v 20.1 0.1 7.6
v 20.1 1 8.8
v 20.1 1 8.7
v 20.1 1 7.7
v 20.1 1 7.6
v 20.9 1 9.3
v 20.9 1 7.1
v 20.9 1.1 9.3
v 20.9 1.1 7.1
v 16.2 0.4 9.7
v 16.2 1.7 9.7
v 16.3 0.4 9.7
v 16.3 1.7 9.7
v 13.7 1 9.3
v 13.7 1.1 9.3
v 16.2 1 9.3
v 16.2 1.1 9.3
v 16.3 1 9.3
v 16.3 1.1 9.3
v 20.9 1 9.3
v 20.9 1.1 9.3
v 14.4 0.1 8.8
v 14.4 1 8.8
v 14.5 0.1 8.8
v 14.5 1 8.8
v 20 0.1 8.8
v 20 1 8.8
v 20.1 0.1 8.8
v 20.1 1 8.8
v 14.4 0.1 7.7
v 14.4 1 7.7
v 14.5 0.1 7.7
v 14.5 1 7.7
v 20 0.1 7.7
v 20 1 7.7
v 20.1 0.1 7.7
v 20.1 1 7.7
v 18.2 0.4 7.5
v 18.2 1 7.5
v 18.2 1.1 7.5
v 18.2 1.7 7.5
v 18.3 0.4 7.5
v 18.3 1 7.5
v 18.3 1.1 7.5
v 18.3 1.7 7.5
v 16.2 0.4 8.9
v 16.2 1 8.9
v 16.2 1.1 8.9
v 16.2 1.7 8.9
v 16.3 0.4 8.9
v 16.3 1 8.9
v 16.3 1.1 8.9
v 16.3 1.7 8.9
v 14.4 0.1 8.7
v 14.4 1 8.7
v 14.5 0.1 8.7
v 14.5 1 8.7
v 20 0.1 8.7
v 20 1 8.7
v 20.1 0.1 8.7
v 20.1 1 8.7
v 14.4 0.1 7.6
v 14.4 1 7.6
v 14.5 0.1 7.6
v 14.5 1 7.6
v 20 0.1 7.6
v 20 1 7.6
v 20.1 0.1 7.6
v 20.1 1 7.6
v 13.7 1 7.1
v 13.7 1.1 7.1
v 18.2 1 7.1
v 18.2 1.1 7.1
v 18.3 1 7.1
v 18.3 1.1 7.1
v 20.9 1 7.1
v 20.9 1.1 7.1
v 18.2 0.4 6.7
v 18.2 1.7 6.7
v 18.3 0.4 6.7
v 18.3 1.7 6.7
v 14.4 0.1 8.8
v 14.5 0.1 8.8
v 20 0.1 8.8
v 20.1 0.1 8.8
v 14.4 0.1 8.7
v 14.5 0.1 8.7
v 20 0.1 8.7
v 20.1 0.1 8.7
v 14.4 0.1 7.7
v 14.5 0.1 7.7
v 20 0.1 7.7
v 20.1 0.1 7.7
v 14.4 0.1 7.6
v 14.5 0.1 7.6
v 20 0.1 7.6
v 20.1 0.1 7.6
v 16.2 0.4 9.7
v 16.3 0.4 9.7
v 16.2 0.4 8.9
v 16.3 0.4 8.9
v 18.2 0.4 7.5
v 18.3 0.4 7.5
v 18.2 0.4 6.7
v 18.3 0.4 6.7
v 13.7 1 9.3
v 16.2 1 9.3
v 16.3 1 9.3
v 20.9 1 9.3
v 16.2 1 8.9
v 16.3 1 8.9
v 14.4 1 8.8
v 14.5 1 8.8
v 20 1 8.8
v 20.1 1 8.8
v 14.4 1 8.7
v 14.5 1 8.7
v 20 1 8.7
v 20.1 1 8.7
v 14.5 1 8.4
v 20 1 8.4
v 14.5 1 8
v 20 1 8
v 14.4 1 7.7
v 14.5 1 7.7
v 20 1 7.7
v 20.1 1 7.7
v 14.4 1 7.6
v 14.5 1 7.6
v 20 1 7.6
v 20.1 1 7.6
v 18.2 1 7.5
v 18.3 1 7.5
v 13.7 1 7.1
v 18.2 1 7.1
v 18.3 1 7.1
v 20.9 1 7.1
v 13.7 1.1 9.3
v 16.2 1.1 9.3
v 16.3 1.1 9.3
v 20.9 1.1 9.3
v 16.2 1.1 8.9
v 16.3 1.1 8.9
v 14.5 1.1 8.4
v 20 1.1 8.4
v 14.5 1.1 8
v 20 1.1 8
v 18.2 1.1 7.5
v 18.3 1.1 7.5
v 13.7 1.1 7.1
v 18.2 1.1 7.1
v 18.3 1.1 7.1
v 20.9 1.1 7.1
v 16.2 1.7 9.7
v 16.3 1.7 9.7
v 16.2 1.7 8.9
v 16.3 1.7 8.9
v 18.2 1.7 7.5
v 18.3 1.7 7.5
v 18.2 1.7 6.7
v 18.3 1.7 6.7

# faces
f 3/1/1 2/1/1 1/1/1
f 4/1/1 2/1/1 3/1/1
f 9/3/1 6/3/1 5/3/1
f 10/3/1 6/3/1 9/3/1
f 11/3/1 8/3/1 7/3/1
f 12/3/1 8/3/1 11/3/1
f 15/2/1 14/2/1 13/2/1
f 16/2/1 14/2/1 15/2/1
f 17/2/1 15/2/1 13/2/1
f 19/2/1 17/2/1 13/2/1
f 19/2/1 18/2/1 17/2/1
f 20/2/1 18/2/1 19/2/1
f 23/2/1 22/2/1 21/2/1
f 24/2/1 22/2/1 23/2/1
f 26/2/1 22/2/1 24/2/1
f 27/2/1 26/2/1 25/2/1
f 28/2/1 22/2/1 26/2/1
f 28/2/1 26/2/1 27/2/1
f 33/3/1 30/3/1 29/3/1
f 34/3/1 30/3/1 33/3/1
f 35/3/1 32/3/1 31/3/1
f 36/3/1 32/3/1 35/3/1
f 37/3/2 38/3/2 41/3/2
f 41/3/2 38/3/2 42/3/2
f 39/3/2 40/3/2 43/3/2
f 43/3/2 40/3/2 44/3/2
f 45/2/2 46/2/2 47/2/2
f 47/2/2 46/2/2 48/2/2
f 45/2/2 47/2/2 49/2/2
f 45/2/2 49/2/2 51/2/2
f 49/2/2 50/2/2 51/2/2
f 51/2/2 50/2/2 52/2/2
f 53/2/2 54/2/2 55/2/2
f 55/2/2 54/2/2 56/2/2
f 56/2/2 54/2/2 58/2/2
f 57/2/2 58/2/2 59/2/2
f 58/2/2 54/2/2 60/2/2
f 59/2/2 58/2/2 60/2/2
f 61/3/2 62/3/2 65/3/2
f 65/3/2 62/3/2 66/3/2
f 63/3/2 64/3/2 67/3/2
f 67/3/2 64/3/2 68/3/2
f 69/1/2 70/1/2 71/1/2
f 71/1/2 70/1/2 72/1/2
f 75/2/3 74/2/3 73/2/3
f 76/2/3 74/2/3 75/2/3
f 79/1/3 78/1/3 77/1/3
f 80/1/3 78/1/3 79/1/3
f 83/1/3 82/1/3 81/1/3
f 84/1/3 82/1/3 83/1/3
f 87/3/3 86/3/3 85/3/3
f 88/3/3 86/3/3 87/3/3
f 91/3/3 90/3/3 89/3/3
f 92/3/3 90/3/3 91/3/3
f 95/3/3 94/3/3 93/3/3
f 96/3/3 94/3/3 95/3/3
f 99/3/3 98/3/3 97/3/3
f 100/3/3 98/3/3 99/3/3
f 105/2/3 102/2/3 101/2/3
f 106/2/3 102/2/3 105/2/3
f 107/2/3 104/2/3 103/2/3
f 108/2/3 104/2/3 107/2/3
f 109/2/4 110/2/4 113/2/4
f 113/2/4 110/2/4 114/2/4
f 111/2/4 112/2/4 115/2/4
f 115/2/4 112/2/4 116/2/4
f 117/3/4 118/3/4 119/3/4
f 119/3/4 118/3/4 120/3/4
f 121/3/4 122/3/4 123/3/4
f 123/3/4 122/3/4 124/3/4
f 125/3/4 126/3/4 127/3/4
f 127/3/4 126/3/4 128/3/4
f 129/3/4 130/3/4 131/3/4
f 131/3/4 130/3/4 132/3/4
f 133/1/4 134/1/4 135/1/4
f 135/1/4 134/1/4 136/1/4
f 137/1/4 138/1/4 139/1/4
f 139/1/4 138/1/4 140/1/4
f 141/2/4 142/2/4 143/2/4
f 143/2/4 142/2/4 144/2/4
f 149/3/5 146/3/5 145/3/5
f 150/3/5 146/3/5 149/3/5
f 151/3/5 148/3/5 147/3/5
f 152/3/5 148/3/5 151/3/5
f 157/3/5 154/3/5 153/3/5
f 158/3/5 154/3/5 157/3/5
f 159/3/5 156/3/5 155/3/5
f 160/3/5 156/3/5 159/3/5
f 163/2/5 162/2/5 161/2/5
f 164/2/5 162/2/5 163/2/5
f 167/2/5 166/2/5 165/2/5
f 168/2/5 166/2/5 167/2/5
f 173/1/5 170/1/5 169/1/5
f 174/1/5 172/1/5 171/1/5
f 175/1/5 173/1/5 169/1/5
f 175/1/5 174/1/5 173/1/5
f 176/1/5 174/1/5 175/1/5
f 177/1/5 172/1/5 174/1/5
f 177/1/5 174/1/5 176/1/5
f 178/1/5 172/1/5 177/1/5
f 179/1/5 175/1/5 169/1/5
f 180/1/5 177/1/5 176/1/5
f 181/1/5 177/1/5 180/1/5
f 182/1/5 172/1/5 178/1/5
f 183/1/5 181/1/5 180/1/5
f 183/1/5 182/1/5 181/1/5
f 183/1/5 180/1/5 179/1/5
f 184/1/5 182/1/5 183/1/5
f 185/1/5 183/1/5 179/1/5
f 185/3/5 184/3/5 183/3/5
f 186/1/5 182/1/5 184/1/5
f 186/3/5 184/3/5 185/3/5
f 187/1/5 179/1/5 169/1/5
f 187/1/5 185/1/5 179/1/5
f 187/1/5 186/1/5 185/1/5
f 188/1/5 186/1/5 187/1/5
f 189/1/5 182/1/5 186/1/5
f 189/1/5 186/1/5 188/1/5
f 190/1/5 172/1/5 182/1/5
f 190/1/5 182/1/5 189/1/5
f 191/1/5 187/1/5 169/1/5
f 192/1/5 189/1/5 188/1/5
f 193/1/5 189/1/5 192/1/5
f 194/1/5 172/1/5 190/1/5
f 195/1/5 193/1/5 192/1/5
f 195/1/5 194/1/5 193/1/5
f 195/1/5 192/1/5 191/1/5
f 196/1/5 194/1/5 195/1/5
f 197/1/5 191/1/5 169/1/5
f 197/1/5 195/1/5 191/1/5
f 198/1/5 195/1/5 197/1/5
f 199/1/5 194/1/5 196/1/5
f 200/1/5 172/1/5 194/1/5
f 200/1/5 194/1/5 199/1/5
f 201/1/6 202/1/6 205/1/6
f 203/1/6 204/1/6 206/1/6
f 201/1/6 205/1/6 207/1/6
f 205/1/6 206/1/6 207/1/6
f 206/1/6 204/1/6 208/1/6
f 207/1/6 206/1/6 208/1/6
f 201/1/6 207/1/6 209/1/6
f 207/3/6 208/3/6 209/3/6
f 208/1/6 204/1/6 210/1/6
f 209/3/6 208/3/6 210/3/6
f 209/1/6 210/1/6 211/1/6
f 211/1/6 210/1/6 212/1/6
f 201/1/6 209/1/6 213/1/6
f 209/1/6 211/1/6 213/1/6
f 213/1/6 211/1/6 214/1/6
f 212/1/6 210/1/6 215/1/6
f 210/1/6 204/1/6 216/1/6
f 215/1/6 210/1/6 216/1/6
f 217/2/6 218/2/6 219/2/6
f 219/2/6 218/2/6 220/2/6
f 221/2/6 222/2/6 223/2/6
f 223/2/6 222/2/6 224/2/6
