# MagicaVoxel @ Ephtracy

# group
o 

# material
mtllib dice_2og-34.mtl
usemtl palette

# normals
vn 1 0 0
vn -1 0 0
vn 0 0 -1
vn 0 0 1
vn 0 -1 0
vn 0 1 0

# texcoords
vt 0.0957031 0.5
vt 0.958984 0.5
vt 0.994141 0.5

# verts
v 38.1 0.1 -5.2
v 38.1 0.1 -5.1
v 38.1 0.1 -4.7
v 38.1 0.1 -4.6
v 38.1 0.2 -5.2
v 38.1 0.2 -5.1
v 38.1 0.2 -4.7
v 38.1 0.2 -4.6
v 38.1 0.4 -5.1
v 38.1 0.4 -4.7
v 38.1 1.3 -5.1
v 38.1 1.3 -4.7
v 38.1 1.4 -5.1
v 38.1 1.4 -4.7
v 38.1 1.8 -5.1
v 38.1 1.8 -4.7
v 38.1 1.9 -5.1
v 38.1 1.9 -4.7
v 38.1 2.3 -5.1
v 38.1 2.3 -4.7
v 38.1 2.4 -5.1
v 38.1 2.4 -4.7
v 38.1 2.8 -5.1
v 38.1 2.8 -4.7
v 38.1 2.9 -5.2
v 38.1 2.9 -4.6
v 36.5 0.4 -5.1
v 36.5 0.4 -4.7
v 36.5 0.8 -5.1
v 36.5 0.8 -4.7
v 36.5 0.9 -5.1
v 36.5 0.9 -4.7
v 36.5 1.3 -5.1
v 36.5 1.3 -4.7
v 36.5 1.4 -5.2
v 36.5 1.4 -5.1
v 36.5 1.4 -4.7
v 36.5 1.4 -4.6
v 36.5 1.8 -5.2
v 36.5 1.8 -5.1
v 36.5 1.8 -4.7
v 36.5 1.8 -4.6
v 36.5 1.9 -5.2
v 36.5 1.9 -5.1
v 36.5 1.9 -4.7
v 36.5 1.9 -4.6
v 36.5 2.3 -5.2
v 36.5 2.3 -5.1
v 36.5 2.3 -4.7
v 36.5 2.3 -4.6
v 36.5 2.4 -5.2
v 36.5 2.4 -5.1
v 36.5 2.4 -4.7
v 36.5 2.4 -4.6
v 36.5 2.8 -5.2
v 36.5 2.8 -5.1
v 36.5 2.8 -4.7
v 36.5 2.8 -4.6
v 36.5 2.9 -5.1
v 36.5 2.9 -4.7
v 34.9 0.1 -5.2
v 34.9 0.1 -5.1
v 34.9 0.1 -4.7
v 34.9 0.1 -4.6
v 34.9 0.2 -5.2
v 34.9 0.2 -5.1
v 34.9 0.2 -4.7
v 34.9 0.2 -4.6
v 34.9 0.3 -5.2
v 34.9 0.3 -5.1
v 34.9 0.3 -4.7
v 34.9 0.3 -4.6
v 34.9 0.4 -5.2
v 34.9 0.4 -5.1
v 34.9 0.4 -4.7
v 34.9 0.4 -4.6
v 34.9 0.8 -5.2
v 34.9 0.8 -5.1
v 34.9 0.8 -4.7
v 34.9 0.8 -4.6
v 34.9 0.9 -5.2
v 34.9 0.9 -5.1
v 34.9 0.9 -4.7
v 34.9 0.9 -4.6
v 34.9 1.3 -5.2
v 34.9 1.3 -5.1
v 34.9 1.3 -4.7
v 34.9 1.3 -4.6
v 34.9 1.4 -5.1
v 34.9 1.4 -4.7
v 34.9 2.3 -5.1
v 34.9 2.3 -4.7
v 34.9 2.4 -5.2
v 34.9 2.4 -5.1
v 34.9 2.4 -4.7
v 34.9 2.4 -4.6
v 34.9 2.8 -5.2
v 34.9 2.8 -5.1
v 34.9 2.8 -4.7
v 34.9 2.8 -4.6
v 34.9 2.9 -5.1
v 34.9 2.9 -4.7
v 38 0.1 -5.2
v 38 0.1 -5.1
v 38 0.1 -4.7
v 38 0.1 -4.6
v 38 0.2 -5.2
v 38 0.2 -5.1
v 38 0.2 -4.7
v 38 0.2 -4.6
v 38 0.3 -5.2
v 38 0.3 -5.1
v 38 0.3 -4.7
v 38 0.3 -4.6
v 38 0.4 -5.1
v 38 0.4 -4.7
v 38 0.8 -5.1
v 38 0.8 -4.7
v 38 0.9 -5.1
v 38 0.9 -4.7
v 38 1.3 -5.1
v 38 1.3 -4.7
v 38 1.4 -5.2
v 38 1.4 -5.1
v 38 1.4 -4.7
v 38 1.4 -4.6
v 38 1.8 -5.2
v 38 1.8 -5.1
v 38 1.8 -4.7
v 38 1.8 -4.6
v 38 1.9 -5.2
v 38 1.9 -5.1
v 38 1.9 -4.7
v 38 1.9 -4.6
v 38 2.3 -5.2
v 38 2.3 -5.1
v 38 2.3 -4.7
v 38 2.3 -4.6
v 38 2.4 -5.2
v 38 2.4 -5.1
v 38 2.4 -4.7
v 38 2.4 -4.6
v 38 2.8 -5.2
v 38 2.8 -5.1
v 38 2.8 -4.7
v 38 2.8 -4.6
v 38 2.9 -5.1
v 38 2.9 -4.7
v 36.4 0.4 -5.2
v 36.4 0.4 -5.1
v 36.4 0.4 -4.7
v 36.4 0.4 -4.6
v 36.4 0.8 -5.2
v 36.4 0.8 -5.1
v 36.4 0.8 -4.7
v 36.4 0.8 -4.6
v 36.4 0.9 -5.2
v 36.4 0.9 -5.1
v 36.4 0.9 -4.7
v 36.4 0.9 -4.6
v 36.4 1.3 -5.2
v 36.4 1.3 -5.1
v 36.4 1.3 -4.7
v 36.4 1.3 -4.6
v 36.4 1.4 -5.1
v 36.4 1.4 -4.7
v 36.4 1.8 -5.1
v 36.4 1.8 -4.7
v 36.4 1.9 -5.1
v 36.4 1.9 -4.7
v 36.4 2.3 -5.1
v 36.4 2.3 -4.7
v 36.4 2.4 -5.2
v 36.4 2.4 -5.1
v 36.4 2.4 -4.7
v 36.4 2.4 -4.6
v 36.4 2.8 -5.2
v 36.4 2.8 -5.1
v 36.4 2.8 -4.7
v 36.4 2.8 -4.6
v 36.4 2.9 -5.1
v 36.4 2.9 -4.7
v 34.8 0.1 -5.2
v 34.8 0.1 -5.1
v 34.8 0.1 -4.7
v 34.8 0.1 -4.6
v 34.8 0.2 -5.2
v 34.8 0.2 -5.1
v 34.8 0.2 -4.7
v 34.8 0.2 -4.6
v 34.8 0.3 -5.1
v 34.8 0.3 -4.7
v 34.8 0.4 -5.1
v 34.8 0.4 -4.7
v 34.8 0.8 -5.1
v 34.8 0.8 -4.7
v 34.8 0.9 -5.1
v 34.8 0.9 -4.7
v 34.8 1.3 -5.1
v 34.8 1.3 -4.7
v 34.8 1.4 -5.1
v 34.8 1.4 -4.7
v 34.8 2.3 -5.1
v 34.8 2.3 -4.7
v 34.8 2.4 -5.1
v 34.8 2.4 -4.7
v 34.8 2.8 -5.1
v 34.8 2.8 -4.7
v 34.8 2.9 -5.2
v 34.8 2.9 -4.6
v 38.1 0.1 -5.2
v 38.1 0.2 -5.2
v 38.1 2.9 -5.2
v 38 0.1 -5.2
v 38 0.2 -5.2
v 38 0.3 -5.2
v 38 0.4 -5.2
v 38 1.3 -5.2
v 38 1.4 -5.2
v 38 1.8 -5.2
v 38 1.9 -5.2
v 38 2.3 -5.2
v 38 2.4 -5.2
v 38 2.8 -5.2
v 36.5 0.4 -5.2
v 36.5 1.3 -5.2
v 36.5 1.4 -5.2
v 36.5 1.8 -5.2
v 36.5 1.9 -5.2
v 36.5 2.3 -5.2
v 36.5 2.4 -5.2
v 36.5 2.8 -5.2
v 36.4 0.4 -5.2
v 36.4 0.8 -5.2
v 36.4 0.9 -5.2
v 36.4 1.3 -5.2
v 36.4 1.4 -5.2
v 36.4 2.3 -5.2
v 36.4 2.4 -5.2
v 36.4 2.8 -5.2
v 34.9 0.1 -5.2
v 34.9 0.2 -5.2
v 34.9 0.3 -5.2
v 34.9 0.4 -5.2
v 34.9 0.8 -5.2
v 34.9 0.9 -5.2
v 34.9 1.3 -5.2
v 34.9 1.4 -5.2
v 34.9 2.3 -5.2
v 34.9 2.4 -5.2
v 34.9 2.8 -5.2
v 34.8 0.1 -5.2
v 34.8 0.2 -5.2
v 34.8 2.9 -5.2
v 38.1 0.1 -4.7
v 38.1 0.2 -4.7
v 38.1 1.4 -4.7
v 38.1 1.8 -4.7
v 38.1 1.9 -4.7
v 38.1 2.3 -4.7
v 38.1 2.4 -4.7
v 38.1 2.8 -4.7
v 38 0.1 -4.7
v 38 0.2 -4.7
v 38 0.4 -4.7
v 38 0.8 -4.7
v 38 0.9 -4.7
v 38 1.3 -4.7
v 38 1.4 -4.7
v 38 1.8 -4.7
v 38 1.9 -4.7
v 38 2.3 -4.7
v 38 2.4 -4.7
v 38 2.8 -4.7
v 38 2.9 -4.7
v 36.5 0.4 -4.7
v 36.5 0.8 -4.7
v 36.5 0.9 -4.7
v 36.5 1.3 -4.7
v 36.5 2.3 -4.7
v 36.5 2.4 -4.7
v 36.5 2.8 -4.7
v 36.5 2.9 -4.7
v 36.4 1.4 -4.7
v 36.4 1.8 -4.7
v 36.4 1.9 -4.7
v 36.4 2.3 -4.7
v 36.4 2.4 -4.7
v 36.4 2.8 -4.7
v 36.4 2.9 -4.7
v 34.9 0.1 -4.7
v 34.9 0.2 -4.7
v 34.9 0.3 -4.7
v 34.9 0.4 -4.7
v 34.9 0.8 -4.7
v 34.9 0.9 -4.7
v 34.9 1.3 -4.7
v 34.9 1.4 -4.7
v 34.9 2.3 -4.7
v 34.9 2.4 -4.7
v 34.9 2.8 -4.7
v 34.9 2.9 -4.7
v 34.8 0.1 -4.7
v 34.8 0.2 -4.7
v 34.8 0.3 -4.7
v 34.8 0.4 -4.7
v 34.8 0.8 -4.7
v 34.8 0.9 -4.7
v 34.8 1.3 -4.7
v 34.8 2.4 -4.7
v 34.8 2.8 -4.7
v 38.1 0.1 -5.1
v 38.1 0.2 -5.1
v 38.1 1.4 -5.1
v 38.1 1.8 -5.1
v 38.1 1.9 -5.1
v 38.1 2.3 -5.1
v 38.1 2.4 -5.1
v 38.1 2.8 -5.1
v 38 0.1 -5.1
v 38 0.2 -5.1
v 38 0.4 -5.1
v 38 0.8 -5.1
v 38 0.9 -5.1
v 38 1.3 -5.1
v 38 1.4 -5.1
v 38 1.8 -5.1
v 38 1.9 -5.1
v 38 2.3 -5.1
v 38 2.4 -5.1
v 38 2.8 -5.1
v 38 2.9 -5.1
v 36.5 0.4 -5.1
v 36.5 0.8 -5.1
v 36.5 0.9 -5.1
v 36.5 1.3 -5.1
v 36.5 2.3 -5.1
v 36.5 2.4 -5.1
v 36.5 2.8 -5.1
v 36.5 2.9 -5.1
v 36.4 1.4 -5.1
v 36.4 1.8 -5.1
v 36.4 1.9 -5.1
v 36.4 2.3 -5.1
v 36.4 2.4 -5.1
v 36.4 2.8 -5.1
v 36.4 2.9 -5.1
v 34.9 0.1 -5.1
v 34.9 0.2 -5.1
v 34.9 0.3 -5.1
v 34.9 0.4 -5.1
v 34.9 0.8 -5.1
v 34.9 0.9 -5.1
v 34.9 1.3 -5.1
v 34.9 1.4 -5.1
v 34.9 2.3 -5.1
v 34.9 2.4 -5.1
v 34.9 2.8 -5.1
v 34.9 2.9 -5.1
v 34.8 0.1 -5.1
v 34.8 0.2 -5.1
v 34.8 0.3 -5.1
v 34.8 0.4 -5.1
v 34.8 0.8 -5.1
v 34.8 0.9 -5.1
v 34.8 1.3 -5.1
v 34.8 2.4 -5.1
v 34.8 2.8 -5.1
v 38.1 0.1 -4.6
v 38.1 0.2 -4.6
v 38.1 2.9 -4.6
v 38 0.1 -4.6
v 38 0.2 -4.6
v 38 0.3 -4.6
v 38 0.4 -4.6
v 38 1.3 -4.6
v 38 1.4 -4.6
v 38 1.8 -4.6
v 38 1.9 -4.6
v 38 2.3 -4.6
v 38 2.4 -4.6
v 38 2.8 -4.6
v 36.5 0.4 -4.6
v 36.5 1.3 -4.6
v 36.5 1.4 -4.6
v 36.5 1.8 -4.6
v 36.5 1.9 -4.6
v 36.5 2.3 -4.6
v 36.5 2.4 -4.6
v 36.5 2.8 -4.6
v 36.4 0.4 -4.6
v 36.4 0.8 -4.6
v 36.4 0.9 -4.6
v 36.4 1.3 -4.6
v 36.4 1.4 -4.6
v 36.4 2.3 -4.6
v 36.4 2.4 -4.6
v 36.4 2.8 -4.6
v 34.9 0.1 -4.6
v 34.9 0.2 -4.6
v 34.9 0.3 -4.6
v 34.9 0.4 -4.6
v 34.9 0.8 -4.6
v 34.9 0.9 -4.6
v 34.9 1.3 -4.6
v 34.9 1.4 -4.6
v 34.9 2.3 -4.6
v 34.9 2.4 -4.6
v 34.9 2.8 -4.6
v 34.8 0.1 -4.6
v 34.8 0.2 -4.6
v 34.8 2.9 -4.6
v 38.1 0.1 -5.2
v 38 0.1 -5.2
v 34.9 0.1 -5.2
v 34.8 0.1 -5.2
v 38.1 0.1 -5.1
v 38 0.1 -5.1
v 34.9 0.1 -5.1
v 34.8 0.1 -5.1
v 38.1 0.1 -4.7
v 38 0.1 -4.7
v 34.9 0.1 -4.7
v 34.8 0.1 -4.7
v 38.1 0.1 -4.6
v 38 0.1 -4.6
v 34.9 0.1 -4.6
v 34.8 0.1 -4.6
v 38.1 0.2 -5.1
v 38 0.2 -5.1
v 38.1 0.2 -4.7
v 38 0.2 -4.7
v 38 0.3 -5.2
v 34.9 0.3 -5.2
v 38 0.3 -5.1
v 36.5 0.3 -5.1
v 36.4 0.3 -5.1
v 34.9 0.3 -5.1
v 34.8 0.3 -5.1
v 38 0.3 -4.7
v 36.5 0.3 -4.7
v 36.4 0.3 -4.7
v 34.9 0.3 -4.7
v 34.8 0.3 -4.7
v 38 0.3 -4.6
v 34.9 0.3 -4.6
v 36.4 0.8 -5.2
v 34.9 0.8 -5.2
v 38 0.8 -5.1
v 36.5 0.8 -5.1
v 36.4 0.8 -5.1
v 34.9 0.8 -5.1
v 34.8 0.8 -5.1
v 38 0.8 -4.7
v 36.5 0.8 -4.7
v 36.4 0.8 -4.7
v 34.9 0.8 -4.7
v 34.8 0.8 -4.7
v 36.4 0.8 -4.6
v 34.9 0.8 -4.6
v 36.4 1.3 -5.2
v 34.9 1.3 -5.2
v 38 1.3 -5.1
v 36.5 1.3 -5.1
v 36.4 1.3 -5.1
v 34.9 1.3 -5.1
v 34.8 1.3 -5.1
v 38 1.3 -4.7
v 36.5 1.3 -4.7
v 36.4 1.3 -4.7
v 34.9 1.3 -4.7
v 34.8 1.3 -4.7
v 36.4 1.3 -4.6
v 34.9 1.3 -4.6
v 38 1.8 -5.2
v 36.5 1.8 -5.2
v 38.1 1.8 -5.1
v 38 1.8 -5.1
v 36.5 1.8 -5.1
v 38.1 1.8 -4.7
v 38 1.8 -4.7
v 36.5 1.8 -4.7
v 38 1.8 -4.6
v 36.5 1.8 -4.6
v 38 2.3 -5.2
v 36.5 2.3 -5.2
v 38.1 2.3 -5.1
v 38 2.3 -5.1
v 36.5 2.3 -5.1
v 36.4 2.3 -5.1
v 34.9 2.3 -5.1
v 38.1 2.3 -4.7
v 38 2.3 -4.7
v 36.5 2.3 -4.7
v 36.4 2.3 -4.7
v 34.9 2.3 -4.7
v 38 2.3 -4.6
v 36.5 2.3 -4.6
v 38 2.8 -5.2
v 36.5 2.8 -5.2
v 36.4 2.8 -5.2
v 34.9 2.8 -5.2
v 38.1 2.8 -5.1
v 38 2.8 -5.1
v 36.5 2.8 -5.1
v 36.4 2.8 -5.1
v 34.9 2.8 -5.1
v 34.8 2.8 -5.1
v 38.1 2.8 -4.7
v 38 2.8 -4.7
v 36.5 2.8 -4.7
v 36.4 2.8 -4.7
v 34.9 2.8 -4.7
v 34.8 2.8 -4.7
v 38 2.8 -4.6
v 36.5 2.8 -4.6
v 36.4 2.8 -4.6
v 34.9 2.8 -4.6
v 36.4 0.4 -5.2
v 34.9 0.4 -5.2
v 38 0.4 -5.1
v 36.5 0.4 -5.1
v 36.4 0.4 -5.1
v 34.9 0.4 -5.1
v 34.8 0.4 -5.1
v 38 0.4 -4.7
v 36.5 0.4 -4.7
v 36.4 0.4 -4.7
v 34.9 0.4 -4.7
v 34.8 0.4 -4.7
v 36.4 0.4 -4.6
v 34.9 0.4 -4.6
v 36.4 0.9 -5.2
v 34.9 0.9 -5.2
v 38 0.9 -5.1
v 36.5 0.9 -5.1
v 36.4 0.9 -5.1
v 34.9 0.9 -5.1
v 34.8 0.9 -5.1
v 38 0.9 -4.7
v 36.5 0.9 -4.7
v 36.4 0.9 -4.7
v 34.9 0.9 -4.7
v 34.8 0.9 -4.7
v 36.4 0.9 -4.6
v 34.9 0.9 -4.6
v 38 1.4 -5.2
v 36.5 1.4 -5.2
v 38.1 1.4 -5.1
v 38 1.4 -5.1
v 36.5 1.4 -5.1
v 36.4 1.4 -5.1
v 34.9 1.4 -5.1
v 38.1 1.4 -4.7
v 38 1.4 -4.7
v 36.5 1.4 -4.7
v 36.4 1.4 -4.7
v 34.9 1.4 -4.7
v 38 1.4 -4.6
v 36.5 1.4 -4.6
v 38 1.9 -5.2
v 36.5 1.9 -5.2
v 38.1 1.9 -5.1
v 38 1.9 -5.1
v 36.5 1.9 -5.1
v 38.1 1.9 -4.7
v 38 1.9 -4.7
v 36.5 1.9 -4.7
v 38 1.9 -4.6
v 36.5 1.9 -4.6
v 38 2.4 -5.2
v 36.5 2.4 -5.2
v 36.4 2.4 -5.2
v 34.9 2.4 -5.2
v 38.1 2.4 -5.1
v 38 2.4 -5.1
v 36.5 2.4 -5.1
v 36.4 2.4 -5.1
v 34.9 2.4 -5.1
v 34.8 2.4 -5.1
v 38.1 2.4 -4.7
v 38 2.4 -4.7
v 36.5 2.4 -4.7
v 36.4 2.4 -4.7
v 34.9 2.4 -4.7
v 34.8 2.4 -4.7
v 38 2.4 -4.6
v 36.5 2.4 -4.6
v 36.4 2.4 -4.6
v 34.9 2.4 -4.6
v 38.1 2.9 -5.2
v 34.8 2.9 -5.2
v 38 2.9 -5.1
v 36.5 2.9 -5.1
v 36.4 2.9 -5.1
v 34.9 2.9 -5.1
v 38 2.9 -4.7
v 36.5 2.9 -4.7
v 36.4 2.9 -4.7
v 34.9 2.9 -4.7
v 38.1 2.9 -4.6
v 34.8 2.9 -4.6

# faces
f 5/3/1 2/3/1 1/3/1
f 6/3/1 2/3/1 5/3/1
f 7/3/1 4/3/1 3/3/1
f 8/3/1 4/3/1 7/3/1
f 9/2/1 6/2/1 5/2/1
f 9/2/1 7/2/1 6/2/1
f 9/2/1 8/2/1 7/2/1
f 10/2/1 8/2/1 9/2/1
f 11/2/1 9/2/1 5/2/1
f 11/1/1 10/1/1 9/1/1
f 12/2/1 8/2/1 10/2/1
f 12/1/1 10/1/1 11/1/1
f 13/2/1 11/2/1 5/2/1
f 13/2/1 12/2/1 11/2/1
f 14/2/1 8/2/1 12/2/1
f 14/2/1 12/2/1 13/2/1
f 15/2/1 13/2/1 5/2/1
f 16/2/1 8/2/1 14/2/1
f 17/2/1 15/2/1 5/2/1
f 17/2/1 16/2/1 15/2/1
f 18/2/1 8/2/1 16/2/1
f 18/2/1 16/2/1 17/2/1
f 19/2/1 17/2/1 5/2/1
f 20/2/1 8/2/1 18/2/1
f 21/2/1 19/2/1 5/2/1
f 21/2/1 20/2/1 19/2/1
f 22/2/1 8/2/1 20/2/1
f 22/2/1 20/2/1 21/2/1
f 23/2/1 21/2/1 5/2/1
f 24/2/1 8/2/1 22/2/1
f 25/2/1 23/2/1 5/2/1
f 25/2/1 24/2/1 23/2/1
f 26/2/1 8/2/1 24/2/1
f 26/2/1 24/2/1 25/2/1
f 29/1/1 28/1/1 27/1/1
f 30/1/1 28/1/1 29/1/1
f 33/1/1 32/1/1 31/1/1
f 34/1/1 32/1/1 33/1/1
f 39/2/1 36/2/1 35/2/1
f 40/1/1 37/1/1 36/1/1
f 40/2/1 36/2/1 39/2/1
f 41/2/1 38/2/1 37/2/1
f 41/1/1 37/1/1 40/1/1
f 42/2/1 38/2/1 41/2/1
f 47/2/1 44/2/1 43/2/1
f 48/1/1 45/1/1 44/1/1
f 48/2/1 44/2/1 47/2/1
f 49/2/1 46/2/1 45/2/1
f 49/1/1 45/1/1 48/1/1
f 50/2/1 46/2/1 49/2/1
f 52/2/1 49/2/1 48/2/1
f 53/2/1 49/2/1 52/2/1
f 55/2/1 52/2/1 51/2/1
f 56/2/1 52/2/1 55/2/1
f 57/2/1 54/2/1 53/2/1
f 58/2/1 54/2/1 57/2/1
f 59/2/1 57/2/1 56/2/1
f 60/2/1 57/2/1 59/2/1
f 65/3/1 62/3/1 61/3/1
f 66/3/1 62/3/1 65/3/1
f 67/3/1 64/3/1 63/3/1
f 68/3/1 64/3/1 67/3/1
f 69/2/1 66/2/1 65/2/1
f 70/2/1 66/2/1 69/2/1
f 71/2/1 68/2/1 67/2/1
f 72/2/1 68/2/1 71/2/1
f 77/2/1 74/2/1 73/2/1
f 78/2/1 74/2/1 77/2/1
f 79/2/1 76/2/1 75/2/1
f 80/2/1 76/2/1 79/2/1
f 85/2/1 82/2/1 81/2/1
f 86/2/1 82/2/1 85/2/1
f 87/2/1 84/2/1 83/2/1
f 88/2/1 84/2/1 87/2/1
f 91/1/1 90/1/1 89/1/1
f 92/1/1 90/1/1 91/1/1
f 97/2/1 94/2/1 93/2/1
f 98/2/1 94/2/1 97/2/1
f 99/2/1 96/2/1 95/2/1
f 100/2/1 96/2/1 99/2/1
f 101/2/1 99/2/1 98/2/1
f 102/2/1 99/2/1 101/2/1
f 103/3/2 104/3/2 107/3/2
f 107/3/2 104/3/2 108/3/2
f 105/3/2 106/3/2 109/3/2
f 109/3/2 106/3/2 110/3/2
f 107/2/2 108/2/2 111/2/2
f 108/2/2 109/2/2 111/2/2
f 109/2/2 110/2/2 111/2/2
f 111/2/2 110/2/2 112/2/2
f 112/2/2 110/2/2 113/2/2
f 113/2/2 110/2/2 114/2/2
f 115/1/2 116/1/2 117/1/2
f 117/1/2 116/1/2 118/1/2
f 119/1/2 120/1/2 121/1/2
f 121/1/2 120/1/2 122/1/2
f 123/2/2 124/2/2 127/2/2
f 127/2/2 124/2/2 128/2/2
f 125/2/2 126/2/2 129/2/2
f 129/2/2 126/2/2 130/2/2
f 131/2/2 132/2/2 135/2/2
f 135/2/2 132/2/2 136/2/2
f 133/2/2 134/2/2 137/2/2
f 137/2/2 134/2/2 138/2/2
f 136/2/2 137/2/2 140/2/2
f 140/2/2 137/2/2 141/2/2
f 139/2/2 140/2/2 143/2/2
f 143/2/2 140/2/2 144/2/2
f 141/2/2 142/2/2 145/2/2
f 145/2/2 142/2/2 146/2/2
f 144/2/2 145/2/2 147/2/2
f 147/2/2 145/2/2 148/2/2
f 149/2/2 150/2/2 153/2/2
f 150/1/2 151/1/2 154/1/2
f 153/2/2 150/2/2 154/2/2
f 151/2/2 152/2/2 155/2/2
f 154/1/2 151/1/2 155/1/2
f 155/2/2 152/2/2 156/2/2
f 157/2/2 158/2/2 161/2/2
f 158/1/2 159/1/2 162/1/2
f 161/2/2 158/2/2 162/2/2
f 159/2/2 160/2/2 163/2/2
f 162/1/2 159/1/2 163/1/2
f 163/2/2 160/2/2 164/2/2
f 165/1/2 166/1/2 167/1/2
f 167/1/2 166/1/2 168/1/2
f 167/2/2 168/2/2 169/2/2
f 169/2/2 168/2/2 170/2/2
f 169/1/2 170/1/2 171/1/2
f 171/1/2 170/1/2 172/1/2
f 173/2/2 174/2/2 177/2/2
f 177/2/2 174/2/2 178/2/2
f 175/2/2 176/2/2 179/2/2
f 179/2/2 176/2/2 180/2/2
f 178/2/2 179/2/2 181/2/2
f 181/2/2 179/2/2 182/2/2
f 183/3/2 184/3/2 187/3/2
f 187/3/2 184/3/2 188/3/2
f 185/3/2 186/3/2 189/3/2
f 189/3/2 186/3/2 190/3/2
f 187/2/2 188/2/2 191/2/2
f 189/2/2 190/2/2 192/2/2
f 187/2/2 191/2/2 193/2/2
f 191/2/2 192/2/2 193/2/2
f 192/2/2 190/2/2 194/2/2
f 193/2/2 192/2/2 194/2/2
f 187/2/2 193/2/2 195/2/2
f 194/2/2 190/2/2 196/2/2
f 187/2/2 195/2/2 197/2/2
f 195/2/2 196/2/2 197/2/2
f 196/2/2 190/2/2 198/2/2
f 197/2/2 196/2/2 198/2/2
f 187/2/2 197/2/2 199/2/2
f 198/2/2 190/2/2 200/2/2
f 187/2/2 199/2/2 201/2/2
f 199/2/2 200/2/2 201/2/2
f 200/2/2 190/2/2 202/2/2
f 201/2/2 200/2/2 202/2/2
f 187/2/2 201/2/2 203/2/2
f 201/1/2 202/1/2 203/1/2
f 202/2/2 190/2/2 204/2/2
f 203/1/2 202/1/2 204/1/2
f 187/2/2 203/2/2 205/2/2
f 203/2/2 204/2/2 205/2/2
f 204/2/2 190/2/2 206/2/2
f 205/2/2 204/2/2 206/2/2
f 187/2/2 205/2/2 207/2/2
f 206/2/2 190/2/2 208/2/2
f 187/2/2 207/2/2 209/2/2
f 207/2/2 208/2/2 209/2/2
f 208/2/2 190/2/2 210/2/2
f 209/2/2 208/2/2 210/2/2
f 214/3/3 212/3/3 211/3/3
f 215/2/3 213/2/3 212/2/3
f 215/3/3 212/3/3 214/3/3
f 216/2/3 213/2/3 215/2/3
f 217/2/3 213/2/3 216/2/3
f 218/2/3 213/2/3 217/2/3
f 219/2/3 213/2/3 218/2/3
f 220/2/3 213/2/3 219/2/3
f 221/2/3 213/2/3 220/2/3
f 222/2/3 213/2/3 221/2/3
f 223/2/3 213/2/3 222/2/3
f 224/2/3 213/2/3 223/2/3
f 225/2/3 217/2/3 216/2/3
f 225/1/3 218/1/3 217/1/3
f 226/2/3 219/2/3 218/2/3
f 226/1/3 218/1/3 225/1/3
f 227/2/3 219/2/3 226/2/3
f 228/2/3 221/2/3 220/2/3
f 229/2/3 221/2/3 228/2/3
f 230/2/3 223/2/3 222/2/3
f 231/2/3 223/2/3 230/2/3
f 232/2/3 213/2/3 224/2/3
f 233/2/3 231/2/3 230/2/3
f 233/2/3 232/2/3 231/2/3
f 233/2/3 229/2/3 228/2/3
f 233/2/3 227/2/3 226/2/3
f 233/2/3 230/2/3 229/2/3
f 233/2/3 225/2/3 216/2/3
f 233/2/3 228/2/3 227/2/3
f 233/2/3 226/2/3 225/2/3
f 234/2/3 232/2/3 233/2/3
f 235/2/3 232/2/3 234/2/3
f 236/2/3 232/2/3 235/2/3
f 237/2/3 232/2/3 236/2/3
f 238/2/3 232/2/3 237/2/3
f 239/2/3 232/2/3 238/2/3
f 240/2/3 213/2/3 232/2/3
f 240/2/3 232/2/3 239/2/3
f 243/2/3 233/2/3 216/2/3
f 244/2/3 233/2/3 243/2/3
f 245/2/3 235/2/3 234/2/3
f 246/2/3 235/2/3 245/2/3
f 247/2/3 237/2/3 236/2/3
f 248/1/3 238/1/3 237/1/3
f 248/2/3 237/2/3 247/2/3
f 249/2/3 239/2/3 238/2/3
f 249/1/3 238/1/3 248/1/3
f 250/2/3 239/2/3 249/2/3
f 251/2/3 213/2/3 240/2/3
f 252/3/3 242/3/3 241/3/3
f 253/2/3 248/2/3 247/2/3
f 253/3/3 242/3/3 252/3/3
f 253/2/3 251/2/3 250/2/3
f 253/2/3 250/2/3 249/2/3
f 253/2/3 244/2/3 243/2/3
f 253/2/3 249/2/3 248/2/3
f 253/2/3 247/2/3 246/2/3
f 253/2/3 245/2/3 244/2/3
f 253/2/3 246/2/3 245/2/3
f 253/2/3 243/2/3 242/2/3
f 254/2/3 213/2/3 251/2/3
f 254/2/3 251/2/3 253/2/3
f 263/3/3 256/3/3 255/3/3
f 264/3/3 256/3/3 263/3/3
f 269/2/3 258/2/3 257/2/3
f 270/2/3 258/2/3 269/2/3
f 271/2/3 260/2/3 259/2/3
f 272/2/3 260/2/3 271/2/3
f 273/2/3 262/2/3 261/2/3
f 274/2/3 262/2/3 273/2/3
f 276/1/3 266/1/3 265/1/3
f 277/1/3 266/1/3 276/1/3
f 278/1/3 268/1/3 267/1/3
f 279/1/3 268/1/3 278/1/3
f 280/2/3 273/2/3 272/2/3
f 281/2/3 273/2/3 280/2/3
f 282/2/3 275/2/3 274/2/3
f 283/2/3 275/2/3 282/2/3
f 288/2/3 282/2/3 281/2/3
f 289/2/3 282/2/3 288/2/3
f 298/1/3 287/1/3 286/1/3
f 298/1/3 285/1/3 284/1/3
f 298/1/3 286/1/3 285/1/3
f 299/1/3 287/1/3 298/1/3
f 301/2/3 290/2/3 289/2/3
f 302/2/3 290/2/3 301/2/3
f 303/3/3 292/3/3 291/3/3
f 304/2/3 293/2/3 292/2/3
f 304/3/3 292/3/3 303/3/3
f 305/2/3 293/2/3 304/2/3
f 306/2/3 295/2/3 294/2/3
f 307/2/3 295/2/3 306/2/3
f 308/2/3 297/2/3 296/2/3
f 309/2/3 297/2/3 308/2/3
f 310/2/3 301/2/3 300/2/3
f 311/2/3 301/2/3 310/2/3
f 312/3/4 313/3/4 320/3/4
f 320/3/4 313/3/4 321/3/4
f 314/2/4 315/2/4 326/2/4
f 326/2/4 315/2/4 327/2/4
f 316/2/4 317/2/4 328/2/4
f 328/2/4 317/2/4 329/2/4
f 318/2/4 319/2/4 330/2/4
f 330/2/4 319/2/4 331/2/4
f 322/1/4 323/1/4 333/1/4
f 333/1/4 323/1/4 334/1/4
f 324/1/4 325/1/4 335/1/4
f 335/1/4 325/1/4 336/1/4
f 329/2/4 330/2/4 337/2/4
f 337/2/4 330/2/4 338/2/4
f 331/2/4 332/2/4 339/2/4
f 339/2/4 332/2/4 340/2/4
f 338/2/4 339/2/4 345/2/4
f 345/2/4 339/2/4 346/2/4
f 343/1/4 344/1/4 355/1/4
f 341/1/4 342/1/4 355/1/4
f 342/1/4 343/1/4 355/1/4
f 355/1/4 344/1/4 356/1/4
f 346/2/4 347/2/4 358/2/4
f 358/2/4 347/2/4 359/2/4
f 348/3/4 349/3/4 360/3/4
f 349/2/4 350/2/4 361/2/4
f 360/3/4 349/3/4 361/3/4
f 361/2/4 350/2/4 362/2/4
f 351/2/4 352/2/4 363/2/4
f 363/2/4 352/2/4 364/2/4
f 353/2/4 354/2/4 365/2/4
f 365/2/4 354/2/4 366/2/4
f 357/2/4 358/2/4 367/2/4
f 367/2/4 358/2/4 368/2/4
f 369/3/4 370/3/4 372/3/4
f 370/2/4 371/2/4 373/2/4
f 372/3/4 370/3/4 373/3/4
f 373/2/4 371/2/4 374/2/4
f 374/2/4 371/2/4 375/2/4
f 375/2/4 371/2/4 376/2/4
f 376/2/4 371/2/4 377/2/4
f 377/2/4 371/2/4 378/2/4
f 378/2/4 371/2/4 379/2/4
f 379/2/4 371/2/4 380/2/4
f 380/2/4 371/2/4 381/2/4
f 381/2/4 371/2/4 382/2/4
f 374/2/4 375/2/4 383/2/4
f 375/1/4 376/1/4 383/1/4
f 376/2/4 377/2/4 384/2/4
f 383/1/4 376/1/4 384/1/4
f 384/2/4 377/2/4 385/2/4
f 378/2/4 379/2/4 386/2/4
f 386/2/4 379/2/4 387/2/4
f 380/2/4 381/2/4 388/2/4
f 388/2/4 381/2/4 389/2/4
f 382/2/4 371/2/4 390/2/4
f 388/2/4 389/2/4 391/2/4
f 389/2/4 390/2/4 391/2/4
f 386/2/4 387/2/4 391/2/4
f 384/2/4 385/2/4 391/2/4
f 387/2/4 388/2/4 391/2/4
f 374/2/4 383/2/4 391/2/4
f 385/2/4 386/2/4 391/2/4
f 383/2/4 384/2/4 391/2/4
f 391/2/4 390/2/4 392/2/4
f 392/2/4 390/2/4 393/2/4
f 393/2/4 390/2/4 394/2/4
f 394/2/4 390/2/4 395/2/4
f 395/2/4 390/2/4 396/2/4
f 396/2/4 390/2/4 397/2/4
f 390/2/4 371/2/4 398/2/4
f 397/2/4 390/2/4 398/2/4
f 374/2/4 391/2/4 401/2/4
f 401/2/4 391/2/4 402/2/4
f 392/2/4 393/2/4 403/2/4
f 403/2/4 393/2/4 404/2/4
f 394/2/4 395/2/4 405/2/4
f 395/1/4 396/1/4 406/1/4
f 405/2/4 395/2/4 406/2/4
f 396/2/4 397/2/4 407/2/4
f 406/1/4 396/1/4 407/1/4
f 407/2/4 397/2/4 408/2/4
f 398/2/4 371/2/4 409/2/4
f 399/3/4 400/3/4 410/3/4
f 405/2/4 406/2/4 411/2/4
f 410/3/4 400/3/4 411/3/4
f 408/2/4 409/2/4 411/2/4
f 407/2/4 408/2/4 411/2/4
f 401/2/4 402/2/4 411/2/4
f 406/2/4 407/2/4 411/2/4
f 404/2/4 405/2/4 411/2/4
f 402/2/4 403/2/4 411/2/4
f 403/2/4 404/2/4 411/2/4
f 400/2/4 401/2/4 411/2/4
f 409/2/4 371/2/4 412/2/4
f 411/2/4 409/2/4 412/2/4
f 417/3/5 414/3/5 413/3/5
f 418/3/5 414/3/5 417/3/5
f 419/3/5 416/3/5 415/3/5
f 420/3/5 416/3/5 419/3/5
f 425/3/5 422/3/5 421/3/5
f 426/3/5 422/3/5 425/3/5
f 427/3/5 424/3/5 423/3/5
f 428/3/5 424/3/5 427/3/5
f 431/2/5 430/2/5 429/2/5
f 432/2/5 430/2/5 431/2/5
f 435/2/5 434/2/5 433/2/5
f 436/2/5 434/2/5 435/2/5
f 437/2/5 434/2/5 436/2/5
f 438/2/5 434/2/5 437/2/5
f 440/1/5 436/1/5 435/1/5
f 441/2/5 437/2/5 436/2/5
f 441/1/5 436/1/5 440/1/5
f 442/1/5 438/1/5 437/1/5
f 442/2/5 437/2/5 441/2/5
f 443/2/5 439/2/5 438/2/5
f 443/1/5 438/1/5 442/1/5
f 444/2/5 439/2/5 443/2/5
f 445/2/5 442/2/5 441/2/5
f 445/2/5 441/2/5 440/2/5
f 445/2/5 443/2/5 442/2/5
f 446/2/5 443/2/5 445/2/5
f 451/2/5 448/2/5 447/2/5
f 452/2/5 448/2/5 451/2/5
f 454/1/5 450/1/5 449/1/5
f 455/1/5 450/1/5 454/1/5
f 456/1/5 452/1/5 451/1/5
f 457/2/5 453/2/5 452/2/5
f 457/1/5 452/1/5 456/1/5
f 458/2/5 453/2/5 457/2/5
f 459/2/5 457/2/5 456/2/5
f 460/2/5 457/2/5 459/2/5
f 465/2/5 462/2/5 461/2/5
f 466/2/5 462/2/5 465/2/5
f 468/1/5 464/1/5 463/1/5
f 469/1/5 464/1/5 468/1/5
f 470/1/5 466/1/5 465/1/5
f 471/2/5 467/2/5 466/2/5
f 471/1/5 466/1/5 470/1/5
f 472/2/5 467/2/5 471/2/5
f 473/2/5 471/2/5 470/2/5
f 474/2/5 471/2/5 473/2/5
f 478/2/5 476/2/5 475/2/5
f 479/2/5 476/2/5 478/2/5
f 480/2/5 478/2/5 477/2/5
f 481/1/5 479/1/5 478/1/5
f 481/2/5 478/2/5 480/2/5
f 482/1/5 479/1/5 481/1/5
f 483/2/5 482/2/5 481/2/5
f 484/2/5 482/2/5 483/2/5
f 488/2/5 486/2/5 485/2/5
f 489/2/5 486/2/5 488/2/5
f 492/2/5 488/2/5 487/2/5
f 493/2/5 488/2/5 492/2/5
f 495/1/5 491/1/5 490/1/5
f 496/1/5 491/1/5 495/1/5
f 497/2/5 494/2/5 493/2/5
f 498/2/5 494/2/5 497/2/5
f 504/2/5 500/2/5 499/2/5
f 505/2/5 500/2/5 504/2/5
f 506/2/5 502/2/5 501/2/5
f 507/2/5 502/2/5 506/2/5
f 509/2/5 504/2/5 503/2/5
f 510/2/5 504/2/5 509/2/5
f 511/2/5 506/2/5 505/2/5
f 512/2/5 506/2/5 511/2/5
f 513/2/5 508/2/5 507/2/5
f 514/2/5 508/2/5 513/2/5
f 515/2/5 511/2/5 510/2/5
f 516/2/5 511/2/5 515/2/5
f 517/2/5 513/2/5 512/2/5
f 518/2/5 513/2/5 517/2/5
f 519/2/6 520/2/6 523/2/6
f 523/2/6 520/2/6 524/2/6
f 521/1/6 522/1/6 526/1/6
f 526/1/6 522/1/6 527/1/6
f 523/1/6 524/1/6 528/1/6
f 524/2/6 525/2/6 529/2/6
f 528/1/6 524/1/6 529/1/6
f 529/2/6 525/2/6 530/2/6
f 528/2/6 529/2/6 531/2/6
f 531/2/6 529/2/6 532/2/6
f 533/2/6 534/2/6 537/2/6
f 537/2/6 534/2/6 538/2/6
f 535/1/6 536/1/6 540/1/6
f 540/1/6 536/1/6 541/1/6
f 537/1/6 538/1/6 542/1/6
f 538/2/6 539/2/6 543/2/6
f 542/1/6 538/1/6 543/1/6
f 543/2/6 539/2/6 544/2/6
f 542/2/6 543/2/6 545/2/6
f 545/2/6 543/2/6 546/2/6
f 547/2/6 548/2/6 550/2/6
f 550/2/6 548/2/6 551/2/6
f 549/2/6 550/2/6 554/2/6
f 550/1/6 551/1/6 555/1/6
f 554/2/6 550/2/6 555/2/6
f 555/1/6 551/1/6 556/1/6
f 552/1/6 553/1/6 557/1/6
f 557/1/6 553/1/6 558/1/6
f 555/2/6 556/2/6 559/2/6
f 559/2/6 556/2/6 560/2/6
f 561/2/6 562/2/6 564/2/6
f 564/2/6 562/2/6 565/2/6
f 563/2/6 564/2/6 566/2/6
f 564/1/6 565/1/6 567/1/6
f 566/2/6 564/2/6 567/2/6
f 567/1/6 565/1/6 568/1/6
f 567/2/6 568/2/6 569/2/6
f 569/2/6 568/2/6 570/2/6
f 571/2/6 572/2/6 576/2/6
f 576/2/6 572/2/6 577/2/6
f 573/2/6 574/2/6 578/2/6
f 578/2/6 574/2/6 579/2/6
f 575/2/6 576/2/6 581/2/6
f 581/2/6 576/2/6 582/2/6
f 577/2/6 578/2/6 583/2/6
f 578/1/6 579/1/6 584/1/6
f 583/2/6 578/2/6 584/2/6
f 579/2/6 580/2/6 585/2/6
f 584/1/6 579/1/6 585/1/6
f 585/2/6 580/2/6 586/2/6
f 582/2/6 583/2/6 587/2/6
f 587/2/6 583/2/6 588/2/6
f 584/2/6 585/2/6 589/2/6
f 589/2/6 585/2/6 590/2/6
f 591/2/6 592/2/6 593/2/6
f 593/2/6 592/2/6 594/2/6
f 594/2/6 592/2/6 595/2/6
f 595/2/6 592/2/6 596/2/6
f 591/2/6 593/2/6 597/2/6
f 594/2/6 595/2/6 598/2/6
f 598/2/6 595/2/6 599/2/6
f 596/2/6 592/2/6 600/2/6
f 598/2/6 599/2/6 601/2/6
f 599/2/6 600/2/6 601/2/6
f 591/2/6 597/2/6 601/2/6
f 597/2/6 598/2/6 601/2/6
f 600/2/6 592/2/6 602/2/6
f 601/2/6 600/2/6 602/2/6
